<svg id="single-navy" xmlns="http://www.w3.org/2000/svg" viewBox="0 0 246.9 246.9">
  <g id="Medaillion_5" data-name="Medaillion 5">
    <g>
      <path d="M193,118.49a61,61,0,0,0-21.08-42.21A61.1,61.1,0,0,0,85,83.41c-.56.67-1.1,1.36-1.63,2.06l-.48.63c-.38.52-.76,1.05-1.13,1.58l-.45.64c-.45.67-.89,1.35-1.31,2-.2.32-.39.65-.58,1l-.67,1.16c-.13.23-.27.44-.39.67l.09-.13c-.84,1.53-1.62,3.08-2.33,4.67a59.13,59.13,0,0,0-3.61,15.59c-.1,1.06-.16,2.11-.2,3.17A60.42,60.42,0,0,1,75,104.87,58.91,58.91,0,0,1,98.67,74.24h0c.8-.53,1.63-1,2.45-1.54l.74-.43.93-.52c.69-.38,1.39-.76,2.09-1.11a59.6,59.6,0,0,1,84.18,68.93,61,61,0,0,1-6.24,17,61.08,61.08,0,0,0,10.15-38Z" fill="#2d2252"/>
      <path d="M180.6,105.64A61.09,61.09,0,0,0,147,72.55c-.81-.32-1.63-.62-2.46-.91l-.74-.26c-.62-.21-1.24-.4-1.86-.59l-.75-.23c-.77-.22-1.55-.43-2.34-.62l-1.1-.25-1.31-.28-.75-.16.15,0c-1.71-.32-3.43-.59-5.16-.77a59,59,0,0,0-16,1.39c-1,.23-2,.5-3.07.79a59.46,59.46,0,0,1,34.56,3.75,59,59,0,0,1,13.73,8.26h0c.75.6,1.49,1.23,2.21,1.86l.65.57.78.72c.57.54,1.15,1.09,1.7,1.65a59.61,59.61,0,0,1-39.55,101.36,61.44,61.44,0,0,1-18.06-.69,61.14,61.14,0,0,0,73-35.2,61.29,61.29,0,0,0,0-47.34Z" fill="#2d2252"/>
      <path d="M134.29,182a61,61,0,0,0,42.11-54c.06-.87.1-1.74.12-2.62,0-.26,0-.52,0-.79,0-.65,0-1.29,0-1.94,0-.26,0-.52,0-.79,0-.8-.07-1.61-.13-2.41,0-.38-.07-.75-.1-1.13s-.09-.89-.14-1.33c0-.25,0-.51-.08-.77v.16q-.31-2.59-.85-5.14A59.48,59.48,0,0,0,169,96.49c-.54-.91-1.11-1.8-1.7-2.68a60.44,60.44,0,0,1,4.65,10.93,59.15,59.15,0,0,1-1.15,38.7h0c-.34.91-.71,1.8-1.09,2.69-.12.26-.22.53-.34.79l-.45,1c-.33.72-.67,1.43-1,2.13a59.63,59.63,0,0,1-79.5,25.83A60.14,60.14,0,0,1,70,161.73a59.46,59.46,0,0,1-10.8-18,61.07,61.07,0,0,1-4.92-17.39,61.13,61.13,0,0,0,80,55.71Z" fill="#2d2252"/>
      <path d="M68.48,149.92a61.1,61.1,0,0,0,40.43,24.54,61.35,61.35,0,0,0,24-1.19c.85-.21,1.69-.45,2.53-.7l.75-.24c.62-.19,1.23-.39,1.85-.61l.73-.26c.76-.27,1.52-.56,2.26-.87l1-.44,1.23-.54.7-.32-.15.05c1.58-.74,3.12-1.53,4.63-2.4a59.35,59.35,0,0,0,12.09-10.5c.69-.79,1.37-1.61,2-2.44a60.46,60.46,0,0,1-9,7.8,59,59,0,0,1-37.17,10.86h0c-1,0-1.92-.11-2.88-.2l-.86-.08-1-.13c-.79-.09-1.57-.2-2.35-.33A59.61,59.61,0,0,1,81.72,66.67a61.16,61.16,0,0,1,15-10.05,61.11,61.11,0,0,0-28.27,93.3Z" fill="#2d2252"/>
      <path d="M78.49,77.22a61.13,61.13,0,0,0-10.85,46,61.11,61.11,0,0,0,8.55,22.45c.46.74,1,1.47,1.45,2.19l.45.64c.38.53.76,1.05,1.15,1.57l.48.62c.49.64,1,1.26,1.52,1.88l.75.85.89,1,.52.57-.1-.12q1.78,1.9,3.72,3.65a59.19,59.19,0,0,0,13.72,8.26c1,.41,2,.8,3,1.16a59.16,59.16,0,0,1-32-38.1h0c-.25-.93-.48-1.87-.7-2.81-.06-.28-.13-.56-.18-.84s-.14-.69-.21-1c-.15-.77-.29-1.55-.41-2.33a59.6,59.6,0,0,1,91.57-58.76A60.65,60.65,0,0,1,176,75.27a61.12,61.12,0,0,0-97.47,2Z" fill="#2d2252"/>
    </g>
  </g>
  <g id="arrow_aura" data-name="arrow + aura">
    <path d="M114.2,129.22l7,19c.54,1.46,1.53,1.5,2.2.09l23-48.3c.67-1.41,0-2.06-1.39-1.45L96.58,119.24c-1.44.61-1.44,1.62,0,2.25Z" fill="#2d2252"/>
    <path d="M179.67,170.32l.75-1.09A74.84,74.84,0,0,1,61.59,78.58Q59.19,81.4,57,84.45a74.85,74.85,0,0,0,122.63,85.87Z" fill="#2d2252" fill-rule="evenodd"/>
  </g>
</svg>
