<svg id="Stencil" xmlns="http://www.w3.org/2000/svg" viewBox="0 0 246.9 246.9">
  <g id="Medaillion_10" data-name="Medaillion 10">
    <g id="thinner">
      <path d="M158.78,64.83a61,61,0,0,1,18.47,14.22,59.77,59.77,0,0,1,10.89,18.17,61.42,61.42,0,0,1,2.43,6.26q-.51-2.17-1.17-4.29A60.64,60.64,0,0,0,71,113.16c-.06.86-.09,1.73-.11,2.6l0,.69c0,.73,0,1.37,0,2v.26c0,.17,0,.34,0,.51,0,.8.07,1.6.13,2.4,0,.27,0,.53.07.8l0,.32c0,.44.09.88.14,1.32l0,.35a2.46,2.46,0,0,0,0,.26h0c.22,1.77.5,3.49.85,5.11a60.65,60.65,0,0,0,2.5,7.28c-.06-.18-.11-.36-.17-.55A60.34,60.34,0,0,1,72,113.24a59.71,59.71,0,0,1,3.65-15.75c.34-.91.71-1.81,1.09-2.7l.13-.29c.07-.17.14-.34.22-.51s.27-.58.4-.88l0-.09c.34-.72.68-1.44,1-2.14a60.12,60.12,0,0,1,80.17-26Z" fill="#fff"/>
      <path d="M192.47,118.52a60.53,60.53,0,0,0-20.91-41.86,60.67,60.67,0,0,0-67.62-7.87A61.1,61.1,0,0,0,85.39,83.73c-.56.67-1.09,1.35-1.62,2l-.47.63c-.38.51-.75,1-1.12,1.56l-.44.64c-.45.66-.89,1.34-1.31,2-.14.22-.27.45-.4.68l-.17.28c-.23.38-.45.76-.67,1.15L79,93l-.13.23h0c-.86,1.57-1.64,3.13-2.31,4.63a59,59,0,0,0-2.26,7.37l.18-.55a60.49,60.49,0,0,1,11.68-20.3,59.81,59.81,0,0,1,12.2-10.59c.82-.53,1.64-1,2.48-1.55l.28-.16c.15-.1.31-.19.47-.28l.87-.49c.76-.41,1.46-.79,2.17-1.15a59.87,59.87,0,0,1,26.87-6.34,58.93,58.93,0,0,1,18.55,3,59.82,59.82,0,0,1,34.75,29.43,60.92,60.92,0,0,1,6.58,22.36,59.61,59.61,0,0,1-1.86,21.09,60.79,60.79,0,0,1-1.72,6.49c.58-1.36,1.1-2.74,1.58-4.14A61.18,61.18,0,0,0,192.47,118.52Z" fill="#fff"/>
      <path d="M180.53,159.49a60.64,60.64,0,0,0-2.29-67.93,61.91,61.91,0,0,0-17.62-16.22,60.62,60.62,0,0,0-46.27-6.94c-.84.21-1.68.45-2.51.7l-.75.23c-.61.19-1.22.39-1.83.61l-.73.25c-.75.27-1.5.56-2.24.87l-.74.31-.29.13-1.21.53-.33.15-.24.1h0c-1.61.76-3.16,1.57-4.59,2.39a59.91,59.91,0,0,0-6.15,4.63l.46-.33a60.46,60.46,0,0,1,21.38-9.56A59.52,59.52,0,0,1,127.78,68c1,0,1.94,0,2.91.07s1.94.12,2.91.21l.32,0,.55,0,.93.11.13,0c.79.1,1.58.2,2.37.33A60.14,60.14,0,0,1,187.44,137a61,61,0,0,1-7.82,22,59.66,59.66,0,0,1-13.91,16,60.58,60.58,0,0,1-5.2,4.25q1.91-1.16,3.71-2.43h0A61.38,61.38,0,0,0,180.53,159.49Z" fill="#fff"/>
      <path d="M146.79,185.61a60.64,60.64,0,0,0,0-112.59c-.81-.33-1.62-.63-2.44-.91l-.74-.25c-.61-.21-1.23-.4-1.84-.59l-.74-.22c-.77-.23-1.55-.43-2.32-.62l-.78-.18-.32-.07-1.3-.28-.34-.07-.25-.06v0c-1.75-.34-3.47-.6-5.11-.77a59.82,59.82,0,0,0-7.7.13h.57A60.36,60.36,0,0,1,146.38,74a59.32,59.32,0,0,1,13.85,8.33c.76.61,1.5,1.24,2.23,1.88l.24.2.42.37.74.69c.62.58,1.2,1.13,1.76,1.7a60.12,60.12,0,0,1,0,84.29,60.62,60.62,0,0,1-19.23,13.17,59.69,59.69,0,0,1-20.64,4.75,59.91,59.91,0,0,1-6.7.37c1.47.13,2.95.2,4.43.22A61.47,61.47,0,0,0,146.79,185.61Z" fill="#fff"/>
      <path d="M127.94,188.09a60.64,60.64,0,0,0,42.37-92.27c-.46-.74-.94-1.46-1.43-2.17l-.4-.56c-.43-.6-.81-1.12-1.2-1.63l-.47-.62c-.49-.63-1-1.25-1.51-1.86-.18-.22-.36-.42-.55-.63l-.19-.22-.89-1-.23-.26-.17-.19h0c-1.22-1.3-2.46-2.53-3.69-3.63a60.14,60.14,0,0,0-6.31-4.42l.46.34a59.64,59.64,0,0,1,22,32.26c.25.93.48,1.88.7,2.83l.07.3.12.55.21,1c.15.79.29,1.57.41,2.36a60.12,60.12,0,0,1-49.55,68.19,60.8,60.8,0,0,1-23.3-.65,59.56,59.56,0,0,1-19.49-8.29,57.65,57.65,0,0,1-5.64-3.64q1.68,1.45,3.45,2.78h0a60.7,60.7,0,0,0,45.23,11.37Z" fill="#fff"/>
      <path d="M68.83,162.75a60.46,60.46,0,0,0,41.52,21.58A60.64,60.64,0,0,0,175.91,128c.05-.87.09-1.73.11-2.6v-.68c0-.75,0-1.39,0-2l0-.78c0-.8-.07-1.6-.13-2.39,0-.27-.05-.54-.07-.8l0-.32c0-.44-.09-.88-.14-1.32l0-.35,0-.26h0c-.23-1.77-.51-3.49-.85-5.1a61.24,61.24,0,0,0-2.51-7.28c.06.18.12.36.17.54a60.39,60.39,0,0,1,2.49,23.29,59.73,59.73,0,0,1-3.65,15.74c-.34.91-.71,1.81-1.09,2.71l-.12.28-.23.51c-.13.31-.27.61-.41.91-.37.78-.72,1.5-1.08,2.21a60.11,60.11,0,0,1-80.18,26,60.8,60.8,0,0,1-18.46-14.22,59.62,59.62,0,0,1-10.9-18.16,60.84,60.84,0,0,1-2.42-6.26c.33,1.44.72,2.87,1.16,4.28h0A61,61,0,0,0,68.83,162.75Z" fill="#fff"/>
      <path d="M172.79,135.93l-.18.54a60.49,60.49,0,0,1-11.68,20.3,59.59,59.59,0,0,1-12.2,10.6c-.81.53-1.64,1-2.48,1.54l-.26.16-.48.28-.88.5c-.75.41-1.45.79-2.17,1.14A60.1,60.1,0,0,1,62.3,144.94a60.6,60.6,0,0,1-6.58-22.36,59.42,59.42,0,0,1,1.86-21.1A60.57,60.57,0,0,1,59.29,95c-.57,1.36-1.1,2.74-1.57,4.14h0a60.62,60.62,0,0,0,38.71,77.13,60.6,60.6,0,0,0,46.75-3.87,61.16,61.16,0,0,0,18.55-15c.56-.66,1.09-1.34,1.62-2l.47-.63c.38-.52.76-1,1.12-1.57l.45-.63c.44-.67.88-1.34,1.3-2,.14-.23.28-.46.41-.69l.16-.27c.23-.38.45-.77.67-1.15l.18-.31.13-.22h0c.86-1.56,1.64-3.12,2.31-4.63A61.08,61.08,0,0,0,172.79,135.93Z" fill="#fff"/>
      <path d="M153.91,162.2a59.43,59.43,0,0,1-37.48,11c-1,0-1.94-.11-2.91-.2l-.29,0-.58-.05-1.06-.13c-.79-.1-1.58-.21-2.36-.34a60.12,60.12,0,0,1-49.55-68.2A60.9,60.9,0,0,1,67.5,82.26a59.87,59.87,0,0,1,13.91-16A62.41,62.41,0,0,1,86.61,62c-1.27.77-2.5,1.58-3.71,2.43h0a60.62,60.62,0,0,0-14,85.16,60.56,60.56,0,0,0,63.89,23.15c.84-.21,1.67-.44,2.5-.69l.67-.21c.69-.21,1.3-.42,1.91-.63l.73-.26c.76-.27,1.5-.56,2.24-.86l.74-.31.29-.13c.41-.18.82-.35,1.22-.54l.32-.14.24-.11h0c1.62-.76,3.16-1.56,4.59-2.38a60,60,0,0,0,6.15-4.64Z" fill="#fff"/>
      <path d="M100.14,55.64A60.54,60.54,0,0,0,66.78,88.47a60.6,60.6,0,0,0,33.36,79.76c.81.33,1.62.63,2.44.91l.68.24c.67.22,1.28.42,1.9.6l.74.23c.77.22,1.54.42,2.32.61l.77.18.32.07,1.3.28.34.07.26.06v0c1.76.34,3.48.6,5.12.77a59.7,59.7,0,0,0,7.69-.13h-.56a60.45,60.45,0,0,1-22.92-4.84,59.52,59.52,0,0,1-13.85-8.33c-.76-.61-1.5-1.23-2.23-1.88l-.21-.18-.44-.39-.75-.69c-.62-.58-1.19-1.13-1.75-1.7a60.11,60.11,0,0,1,0-84.29,60.77,60.77,0,0,1,19.24-13.17,59.58,59.58,0,0,1,20.64-4.75,59.91,59.91,0,0,1,6.7-.37c-1.48-.13-3-.2-4.43-.22A61.32,61.32,0,0,0,100.14,55.64Z" fill="#fff"/>
      <path d="M142.54,55.38A59.74,59.74,0,0,1,162,63.67a62.23,62.23,0,0,1,5.64,3.64q-1.68-1.45-3.46-2.78a60.61,60.61,0,0,0-67.7-3.24,60.74,60.74,0,0,0-27.6,38,60.56,60.56,0,0,0,7.7,46.15c.46.74.94,1.46,1.44,2.17l.45.64c.37.53.75,1,1.14,1.56l.17.21.3.4c.49.63,1,1.26,1.52,1.87l.52.59.21.25.89,1,.24.26c.05.07.11.13.17.2v0c1.22,1.31,2.46,2.53,3.68,3.63a59.69,59.69,0,0,0,6.31,4.42l-.46-.34a60.42,60.42,0,0,1-15.7-17.38A59.73,59.73,0,0,1,71.2,130c-.26-.94-.49-1.89-.7-2.84l-.07-.3c0-.18-.09-.36-.12-.55s-.14-.68-.21-1c-.15-.8-.3-1.58-.41-2.37a60.1,60.1,0,0,1,49.55-68.19A60.8,60.8,0,0,1,142.54,55.38Z" fill="#fff"/>
    </g>
  </g>
  <g id="arrow_aura" data-name="arrow + aura">
    <path d="M114.2,129.22l7,19c.54,1.46,1.53,1.5,2.2.09l23-48.3c.67-1.41,0-2.06-1.39-1.45L96.58,119.24c-1.44.61-1.44,1.62,0,2.25Z" fill="#fff"/>
    <path d="M179.67,170.32l.75-1.09A74.84,74.84,0,0,1,61.59,78.58,66.61,66.61,0,0,0,57,84.45C38.21,112.48,44.56,162,78.42,185.7S159.92,198.61,179.67,170.32Z" fill="#fff" fill-rule="evenodd"/>
  </g>
</svg>
