<svg id="positiv" xmlns="http://www.w3.org/2000/svg" viewBox="0 0 505.36 246.9">
  <g id="MOSAIC_Extended" data-name="MOSAIC Extended">
    <g id="MOSAIC_Extended_block" data-name="MOSAIC Extended block">
      <g>
        <path d="M219.1,142.39h15.12c.33,0,.5.2.5.59l0,3.25c0,.51-.24.76-.73.76h-8.4c-.43,0-.64.17-.64.53v2.38a.62.62,0,0,0,.14.43.44.44,0,0,0,.36.16h5c.4,0,.59.18.59.56v3.47c0,.32-.17.48-.5.48h-5.18a.43.43,0,0,0-.32.11.33.33,0,0,0-.13.28v2.8a.49.49,0,0,0,.07.31.38.38,0,0,0,.27.08h9.1c.41,0,.61.18.61.53v3.44a.57.57,0,0,1-.17.45.65.65,0,0,1-.5.17h-15a.79.79,0,0,1-.59-.17.73.73,0,0,1-.17-.53V143C218.56,142.61,218.74,142.39,219.1,142.39Z" fill="#2d2252"/>
        <path d="M268.4,162.7c0,.31-.26.47-.78.47h-5a1.24,1.24,0,0,1-1.18-.56l-3.08-5.26q-.26-.42-.39-.42t-.39.39l-3,5.29a1.24,1.24,0,0,1-1.2.56h-4q-.78,0-.78-.45a2.28,2.28,0,0,1,.42-1l5.52-8.54a.87.87,0,0,0,.19-.5,1,1,0,0,0-.19-.5l-5.66-8.82a.78.78,0,0,1-.14-.48c0-.34.2-.51.59-.51h5.29a1.37,1.37,0,0,1,.7.15,1.05,1.05,0,0,1,.42.44l2.55,4.51a.37.37,0,0,0,.31.22c.11,0,.21-.07.3-.22L261.4,143a1.1,1.1,0,0,1,.41-.44,1.27,1.27,0,0,1,.68-.15h4.34c.38,0,.56.15.56.42a1,1,0,0,1-.19.51l-5.29,8.12a.79.79,0,0,0-.17.45,1.23,1.23,0,0,0,.22.56l6.05,9.29A1.89,1.89,0,0,1,268.4,162.7Z" fill="#2d2252"/>
        <path d="M281.38,143a.62.62,0,0,1,.18-.46.7.7,0,0,1,.52-.19h16.74a.7.7,0,0,1,.52.19.62.62,0,0,1,.18.46v3.33c0,.36-.2.53-.61.53h-5c-.22,0-.33.1-.33.28v15.37a.71.71,0,0,1-.14.47.54.54,0,0,1-.4.15h-5.32c-.33,0-.5-.19-.5-.56V147.29c0-.26-.1-.39-.31-.39H282c-.43,0-.64-.17-.64-.53Z" fill="#2d2252"/>
        <path d="M314,142.39h15.12c.34,0,.5.2.5.59l0,3.25c0,.51-.25.76-.73.76h-8.4c-.43,0-.65.17-.65.53v2.38a.62.62,0,0,0,.14.43.47.47,0,0,0,.37.16h5c.39,0,.59.18.59.56v3.47q0,.48-.51.48h-5.18a.43.43,0,0,0-.32.11.36.36,0,0,0-.13.28v2.8a.56.56,0,0,0,.07.31.38.38,0,0,0,.27.08h9.1c.41,0,.62.18.62.53v3.44a.61.61,0,0,1-.17.45.66.66,0,0,1-.51.17h-15a.76.76,0,0,1-.58-.17.69.69,0,0,1-.17-.53V143C313.43,142.61,313.6,142.39,314,142.39Z" fill="#2d2252"/>
        <path d="M362.22,142.39q.42,0,.42.48v19.8a.43.43,0,0,1-.18.36.68.68,0,0,1-.46.14h-3.84a.92.92,0,0,1-.4-.08,1.21,1.21,0,0,1-.35-.34l-7.7-10.44c-.08-.1-.14-.13-.2-.11s-.08.07-.08.16v10.19a.56.56,0,0,1-.13.48.76.76,0,0,1-.54.14H345c-.47,0-.7-.19-.7-.56V143c0-.43.2-.65.61-.65h4.57a1.23,1.23,0,0,1,.54.1,1.42,1.42,0,0,1,.41.41l6.72,9.35c.11.17.21.25.31.25s.14-.12.14-.36V143a.53.53,0,0,1,.61-.59Z" fill="#2d2252"/>
        <path d="M381.91,142.39q3.33,0,4.14,0,5.46.2,8.26,3a9.84,9.84,0,0,1,2.8,7.35,11.33,11.33,0,0,1-1.26,5.43,8.88,8.88,0,0,1-3.75,3.68,12.74,12.74,0,0,1-6.08,1.33h-7.36a.81.81,0,0,1-.62-.2.88.88,0,0,1-.19-.64V143.09a.67.67,0,0,1,.17-.54.86.86,0,0,1,.58-.16Zm2.36,4.49a.5.5,0,0,0-.07.3v11.17a.48.48,0,0,0,.09.34c0,.06.15.08.31.08h.19a5.7,5.7,0,0,0,4.21-1.44q1.46-1.44,1.45-4.69a6.64,6.64,0,0,0-1.1-4.17,4.39,4.39,0,0,0-3.19-1.57l-1.68-.11A.26.26,0,0,0,384.27,146.88Z" fill="#2d2252"/>
        <path d="M412,142.39h15.12c.33,0,.5.2.5.59l0,3.25c0,.51-.25.76-.73.76h-8.4c-.43,0-.65.17-.65.53v2.38a.62.62,0,0,0,.14.43.47.47,0,0,0,.37.16h5c.39,0,.58.18.58.56v3.47c0,.32-.16.48-.5.48H418.3a.43.43,0,0,0-.32.11.33.33,0,0,0-.13.28v2.8a.56.56,0,0,0,.07.31.38.38,0,0,0,.27.08h9.1c.41,0,.61.18.61.53v3.44a.61.61,0,0,1-.16.45.66.66,0,0,1-.51.17h-15a.76.76,0,0,1-.58-.17.69.69,0,0,1-.17-.53V143C411.5,142.61,411.67,142.39,412,142.39Z" fill="#2d2252"/>
        <path d="M446.38,142.39q3.33,0,4.14,0,5.46.2,8.26,3a9.84,9.84,0,0,1,2.8,7.35,11.33,11.33,0,0,1-1.26,5.43,8.88,8.88,0,0,1-3.75,3.68,12.74,12.74,0,0,1-6.08,1.33h-7.36a.81.81,0,0,1-.62-.2.88.88,0,0,1-.19-.64V143.09a.71.71,0,0,1,.16-.54.91.91,0,0,1,.59-.16Zm2.36,4.49a.5.5,0,0,0-.07.3v11.17a.48.48,0,0,0,.09.34c.05.06.15.08.3.08h.2a5.7,5.7,0,0,0,4.21-1.44q1.45-1.44,1.45-4.69a6.64,6.64,0,0,0-1.1-4.17,4.39,4.39,0,0,0-3.19-1.57l-1.68-.11A.26.26,0,0,0,448.74,146.88Z" fill="#2d2252"/>
      </g>
      <g>
        <path d="M218.83,125.78a1.59,1.59,0,0,1-.35-1.09V79.89c0-.81.36-1.22,1.09-1.22h13.24a2.08,2.08,0,0,1,1,.2,1.34,1.34,0,0,1,.51.76L244,106.45q.19.51.45.51t.45-.51l9.22-26.3c.25-1,.72-1.48,1.4-1.48h13.76c.64,0,1,.39,1,1.16v44.8a1.52,1.52,0,0,1-.38,1.18,1.74,1.74,0,0,1-1.22.35H260.4a1.46,1.46,0,0,1-1.06-.29,1.38,1.38,0,0,1-.29-1V93c0-.3-.06-.45-.19-.45s-.25.17-.38.51l-11.2,32.07a1.31,1.31,0,0,1-1.35,1h-5.31a1.29,1.29,0,0,1-1.41-1L228.14,93.52c-.13-.34-.25-.51-.38-.51s-.26.19-.26.58V125a.91.91,0,0,1-1.15,1.15h-6.53A1.28,1.28,0,0,1,218.83,125.78Z" fill="#2d2252"/>
        <path d="M284.61,123.89a19.13,19.13,0,0,1-7.62-8.35,29.22,29.22,0,0,1-2.65-12.93A29.72,29.72,0,0,1,277,89.52,19.74,19.74,0,0,1,284.67,81a22.2,22.2,0,0,1,11.62-3,21.91,21.91,0,0,1,11.52,3,19.72,19.72,0,0,1,7.61,8.51,29.4,29.4,0,0,1,2.69,13,29.22,29.22,0,0,1-2.65,12.89,19.43,19.43,0,0,1-7.59,8.42,22.15,22.15,0,0,1-11.58,2.94A22.65,22.65,0,0,1,284.61,123.89Zm19.39-8.8q2.4-3.84,2.4-12.42,0-8.76-2.46-12.8a8.36,8.36,0,0,0-7.65-4c-3.54,0-6.14,1.35-7.78,4s-2.46,7-2.46,12.8.81,9.86,2.43,12.42,4.22,3.84,7.81,3.84S302.4,117.65,304,115.09Z" fill="#2d2252"/>
        <path d="M344.72,87a12.77,12.77,0,0,0-5.6-1,10.48,10.48,0,0,0-5.95,1.41A4.31,4.31,0,0,0,331.12,91q0,3.33,5.19,4.86l10.11,2.88q5.7,1.61,8.48,5.06a12.8,12.8,0,0,1,2.78,8.32,13.18,13.18,0,0,1-2.3,7.77,14.65,14.65,0,0,1-6.62,5.09,26.52,26.52,0,0,1-10.15,1.79,29.9,29.9,0,0,1-11.77-2.21,16.08,16.08,0,0,1-7.68-6,1.63,1.63,0,0,1-.26-.84,1.54,1.54,0,0,1,.64-1.08l4.93-3.4a2.32,2.32,0,0,1,1.15-.38,1.17,1.17,0,0,1,1,.51,15.32,15.32,0,0,0,4.8,4.35,17.23,17.23,0,0,0,13.18-.06,4.35,4.35,0,0,0,2.44-4,4,4,0,0,0-1.22-3,10.12,10.12,0,0,0-4.1-2.11L332,105.81a16.4,16.4,0,0,1-8.51-5.15,12.48,12.48,0,0,1-3-8.22,12.63,12.63,0,0,1,2.27-7.37,15.36,15.36,0,0,1,6.43-5.15A23,23,0,0,1,338.8,78a25.84,25.84,0,0,1,9.86,1.83,16.08,16.08,0,0,1,6.85,4.89,1.66,1.66,0,0,1,.38.9.94.94,0,0,1-.38.71l-5.38,4a1.3,1.3,0,0,1-.57.26c-.22,0-.56-.24-1-.71A12.72,12.72,0,0,0,344.72,87Z" fill="#2d2252"/>
        <path d="M357.59,125.07a1.85,1.85,0,0,1,.12-.76L373.65,80a2.24,2.24,0,0,1,.61-1,1.62,1.62,0,0,1,1.05-.29h9.6a2,2,0,0,1,1.22.39,1.93,1.93,0,0,1,.7,1l15.81,44.36a1.82,1.82,0,0,1,.13.57,1.48,1.48,0,0,1-.22.83.76.76,0,0,1-.68.32h-9.4a1.15,1.15,0,0,1-1.22-.89l-3.33-9.35a1.35,1.35,0,0,0-.29-.54.71.71,0,0,0-.54-.16H371.47a.8.8,0,0,0-.83.64l-3.39,9.47a1.35,1.35,0,0,1-1.34.83h-7.36C357.91,126.16,357.59,125.8,357.59,125.07Zm26.88-18.36c.42,0,.64-.17.64-.52a2,2,0,0,0-.07-.57l-5.37-15c-.13-.25-.28-.38-.45-.38s-.26.15-.39.45l-5.44,14.91a2.13,2.13,0,0,0-.12.57c0,.35.23.52.7.52Z" fill="#2d2252"/>
        <path d="M415.39,78.67c.68,0,1,.39,1,1.16v44.8a1.52,1.52,0,0,1-.39,1.18,2,2,0,0,1-1.34.35h-8.07a1.5,1.5,0,0,1-1.09-.32,1.4,1.4,0,0,1-.32-1V79.89c0-.81.35-1.22,1-1.22Z" fill="#2d2252"/>
        <path d="M451,79.89A18.49,18.49,0,0,1,457.78,85a15.22,15.22,0,0,1,3.36,7.16,4,4,0,0,1,.13,1,.56.56,0,0,1-.2.51,1.4,1.4,0,0,1-.57.19l-8.64.58c-.39,0-.63-.06-.74-.19a2,2,0,0,1-.29-.77A10.34,10.34,0,0,0,448,87.89a7.78,7.78,0,0,0-5.63-2q-10.25,0-10.25,16.39,0,8.51,2.56,12.41t7.81,3.91a10.8,10.8,0,0,0,6.5-1.92,13.37,13.37,0,0,0,4.32-6.27.8.8,0,0,1,.83-.45,2.09,2.09,0,0,1,.58.06l6.27,1.35c.6.21.83.74.7,1.59a16.88,16.88,0,0,1-3,6,20.2,20.2,0,0,1-16.67,7.93,21,21,0,0,1-11.49-3.1,20.1,20.1,0,0,1-7.52-8.71,30.2,30.2,0,0,1-2.63-13,29,29,0,0,1,2.63-12.73A19,19,0,0,1,430.58,81,22.05,22.05,0,0,1,442.07,78,21.37,21.37,0,0,1,451,79.89Z" fill="#2d2252"/>
      </g>
    </g>
    <g id="Medaillion_10" data-name="Medaillion 10">
      <g id="neu_Kopie_9_Kopie_2" data-name="neu Kopie 9 Kopie 2">
        <g>
          <circle cx="123.46" cy="120.63" r="69.17" fill="none"/>
          <path d="M189.88,99a61.11,61.11,0,0,0-53.31-42.76A61.14,61.14,0,0,0,76.76,89.94a61.2,61.2,0,0,0-6.28,23.18c-.06.88-.09,1.75-.11,2.62,0,.27,0,.53,0,.79,0,.65,0,1.3,0,2,0,.26,0,.52,0,.78,0,.81.07,1.61.13,2.42,0,.37.07.75.11,1.12s.08.89.13,1.33c0,.26,0,.52.08.77v-.15c.22,1.72.5,3.44.86,5.14a59.23,59.23,0,0,0,6.24,14.74c.54.91,1.11,1.8,1.7,2.68A60.7,60.7,0,0,1,75,136.38a59,59,0,0,1,1.15-38.71h0c.34-.9.7-1.8,1.08-2.68l.34-.79.45-1c.34-.71.68-1.42,1-2.12a59.6,59.6,0,0,1,108.62,6.28,61.13,61.13,0,0,1,4.92,17.4A61.19,61.19,0,0,0,189.88,99Z" fill="#68145c"/>
        </g>
      </g>
      <g id="neu_Kopie_8_Kopie_3" data-name="neu Kopie 8 Kopie 3">
        <g>
          <circle cx="123.46" cy="120.63" r="69.17" fill="none"/>
          <path d="M189.88,142.21a61.14,61.14,0,0,0-39-77.77,61.16,61.16,0,0,0-47.14,3.9A61.41,61.41,0,0,0,85,83.41c-.56.67-1.1,1.36-1.63,2.06l-.48.63c-.38.52-.76,1.05-1.13,1.58l-.45.64c-.45.67-.89,1.35-1.31,2-.2.32-.39.65-.58,1l-.67,1.16c-.13.23-.27.44-.39.67l.09-.13c-.84,1.53-1.62,3.08-2.33,4.67a59.13,59.13,0,0,0-3.61,15.59c-.1,1.06-.16,2.11-.2,3.17A60.42,60.42,0,0,1,75,104.87,59,59,0,0,1,98.67,74.24h0c.8-.53,1.63-1,2.45-1.54l.74-.43.93-.52c.69-.38,1.39-.76,2.09-1.11a59.6,59.6,0,0,1,84.18,68.93,61,61,0,0,1-6.24,17A61.23,61.23,0,0,0,189.88,142.21Z" fill="#f88d2b"/>
        </g>
      </g>
      <g id="neu_Kopie_7_Kopie_2" data-name="neu Kopie 7 Kopie 2">
        <g>
          <circle cx="123.46" cy="120.63" r="69.17" fill="none"/>
          <path d="M164.51,177.12a61.12,61.12,0,0,0,24.2-63.91,61.22,61.22,0,0,0-50.49-46.49,61.15,61.15,0,0,0-24,1.2c-.85.21-1.69.45-2.53.7l-.76.23-1.84.61-.74.26c-.76.28-1.51.57-2.26.87l-1,.45c-.41.17-.82.35-1.22.54l-.71.31.15,0q-2.37,1.11-4.63,2.41A58.94,58.94,0,0,0,86.57,84.74c-.7.8-1.37,1.61-2,2.45a60.39,60.39,0,0,1,9-7.8,59.12,59.12,0,0,1,37.17-10.87h0c1,0,1.93.12,2.89.21l.85.08c.36,0,.71.08,1.06.12.78.1,1.56.21,2.34.34A59.6,59.6,0,0,1,165.4,174.51a61.14,61.14,0,0,1-15,10.06A61.22,61.22,0,0,0,164.51,177.12Z" fill="#efd830"/>
        </g>
      </g>
      <g id="neu_Kopie_6_Kopie_3" data-name="neu Kopie 6 Kopie 3">
        <g>
          <circle cx="123.46" cy="120.63" r="69.17" fill="none"/>
          <path d="M123.46,190.46A61.13,61.13,0,0,0,180.61,153a61.29,61.29,0,0,0,0-47.34A61.09,61.09,0,0,0,147,72.55c-.81-.32-1.63-.62-2.46-.91l-.74-.26c-.62-.21-1.24-.4-1.86-.59l-.75-.23c-.77-.22-1.55-.43-2.34-.62l-1.1-.25-1.31-.28-.75-.16.15,0c-1.71-.32-3.43-.59-5.16-.77a59,59,0,0,0-16,1.39c-1,.23-2,.5-3.07.79a59.46,59.46,0,0,1,34.56,3.75,59,59,0,0,1,13.73,8.26h0c.75.6,1.49,1.23,2.21,1.86l.65.57.78.72c.57.54,1.15,1.09,1.7,1.65a59.61,59.61,0,0,1-39.55,101.36,61.44,61.44,0,0,1-18.06-.69A61.19,61.19,0,0,0,123.46,190.46Z" fill="#7aba1e"/>
        </g>
      </g>
      <g id="neu_Kopie_5_Kopie_2" data-name="neu Kopie 5 Kopie 2">
        <g>
          <circle cx="123.46" cy="120.63" r="69.17" fill="none"/>
          <path d="M82.41,177.12a61.16,61.16,0,0,0,68.27,3.27,61.13,61.13,0,0,0,20.06-84.84c-.47-.74-1-1.47-1.45-2.19l-.46-.64c-.37-.53-.76-1-1.15-1.57-.16-.2-.31-.41-.47-.62-.5-.64-1-1.26-1.53-1.88-.24-.29-.49-.57-.74-.85s-.59-.67-.9-1l-.51-.57.09.12c-1.19-1.26-2.42-2.49-3.71-3.65a59.23,59.23,0,0,0-13.72-8.25c-1-.42-2-.81-2.95-1.17A59.69,59.69,0,0,1,169,96.62a59,59,0,0,1,6.25,14.76h0c.26.93.49,1.87.7,2.81.06.28.13.56.19.84l.21,1c.14.77.29,1.55.4,2.33a59.61,59.61,0,0,1-91.57,58.76A60.8,60.8,0,0,1,71,166,61,61,0,0,0,82.41,177.12Z" fill="#009de2"/>
        </g>
      </g>
      <g id="neu_Kopie_4_Kopie_3" data-name="neu Kopie 4 Kopie 3">
        <g>
          <circle cx="123.42" cy="120.49" r="69.17" transform="translate(-49.05 122.56) rotate(-45)" fill="none"/>
          <path d="M57,142.07A61.14,61.14,0,0,0,176.4,128c.06-.87.1-1.74.12-2.62,0-.26,0-.52,0-.79,0-.65,0-1.29,0-1.94,0-.26,0-.52,0-.79,0-.8-.07-1.61-.13-2.41,0-.38-.07-.75-.1-1.13s-.09-.89-.14-1.33c0-.25,0-.51-.08-.77v.16q-.31-2.59-.85-5.14A59.48,59.48,0,0,0,169,96.49c-.54-.91-1.11-1.8-1.7-2.68a60.44,60.44,0,0,1,4.65,10.93,59.15,59.15,0,0,1-1.15,38.7h0c-.34.91-.71,1.8-1.09,2.69-.12.26-.22.53-.34.79l-.45,1c-.33.72-.67,1.43-1,2.13a59.63,59.63,0,0,1-79.5,25.83A60.14,60.14,0,0,1,70,161.73a59.46,59.46,0,0,1-10.8-18,61.07,61.07,0,0,1-4.92-17.39A61.55,61.55,0,0,0,57,142.07Z" fill="#68145c"/>
        </g>
      </g>
      <g id="neu_Kopie_3_Kopie_2" data-name="neu Kopie 3 Kopie 2">
        <g>
          <circle cx="123.66" cy="120.56" r="69.17" transform="translate(-39.92 175.94) rotate(-62.98)" fill="none"/>
          <path d="M57.24,99a61.15,61.15,0,0,0,104.88,58.79c.56-.67,1.1-1.36,1.63-2.05l.47-.63c.39-.52.77-1.05,1.14-1.58.14-.22.3-.43.44-.65.45-.66.89-1.34,1.32-2l.57-1c.23-.38.46-.77.68-1.16.12-.22.26-.44.38-.66l-.09.12c.84-1.52,1.63-3.07,2.33-4.66a59.2,59.2,0,0,0,3.61-15.6c.1-1.05.16-2.11.2-3.16a59.56,59.56,0,0,1-14.24,31.7A59.14,59.14,0,0,1,148.46,167h0q-1.22.8-2.46,1.53l-.74.44-.93.52c-.69.38-1.38.75-2.09,1.11a59.61,59.61,0,0,1-84.18-68.94,61,61,0,0,1,6.24-17A61.82,61.82,0,0,0,57.24,99Z" fill="#f88d2b"/>
        </g>
      </g>
      <g id="neu_Kopie_2_Kopie_3" data-name="neu Kopie 2 Kopie 3">
        <g>
          <circle cx="123.66" cy="120.56" r="69.17" transform="translate(-47.25 95.71) rotate(-36)" fill="none"/>
          <path d="M82.61,64.06A61.15,61.15,0,0,0,132.9,173.27c.85-.21,1.69-.45,2.53-.7l.75-.24c.62-.19,1.23-.39,1.85-.61l.73-.26c.76-.27,1.52-.56,2.26-.87l1-.44,1.23-.54.7-.32-.15.05c1.58-.74,3.12-1.53,4.63-2.4a59.35,59.35,0,0,0,12.09-10.5c.69-.79,1.37-1.61,2-2.44a60.46,60.46,0,0,1-9,7.8,59,59,0,0,1-37.17,10.86h0c-1,0-1.92-.11-2.88-.2l-.86-.08-1-.13c-.79-.09-1.57-.2-2.35-.33A59.61,59.61,0,0,1,81.72,66.67a61.16,61.16,0,0,1,15-10.05A61.45,61.45,0,0,0,82.61,64.06Z" fill="#efd830"/>
        </g>
      </g>
      <g id="neu_Kopie_Kopie_2" data-name="neu Kopie Kopie 2">
        <g>
          <circle cx="123.46" cy="120.63" r="69.17" fill="none"/>
          <path d="M123.46,50.79a61.14,61.14,0,0,0-61.9,61.15,61.14,61.14,0,0,0,18.28,43.62A61.37,61.37,0,0,0,100,168.7c.82.32,1.64.63,2.46.92l.75.25c.61.21,1.23.4,1.85.59l.75.23c.78.22,1.56.43,2.34.62l1.1.25,1.31.28.76.16-.15,0c1.71.32,3.43.59,5.15.77a59,59,0,0,0,16-1.39c1-.23,2.06-.5,3.07-.79a59.51,59.51,0,0,1-34.55-3.74A59.16,59.16,0,0,1,87,158.54h0c-.76-.6-1.49-1.23-2.22-1.86l-.65-.57-.77-.72q-.87-.81-1.71-1.65A59.61,59.61,0,0,1,121.21,52.38a61.43,61.43,0,0,1,18.06.69A61.13,61.13,0,0,0,123.46,50.79Z" fill="#7aba1e"/>
        </g>
      </g>
      <g id="neu_Kopie_12" data-name="neu Kopie 12">
        <g>
          <circle cx="123.46" cy="120.63" r="69.17" fill="none"/>
          <path d="M164.51,64.13A61.15,61.15,0,0,0,76.19,145.7c.46.74,1,1.47,1.45,2.19l.45.64c.38.53.76,1.05,1.15,1.57l.48.62c.49.64,1,1.26,1.52,1.88l.75.85.89,1,.52.57-.1-.12q1.78,1.9,3.72,3.65a59.19,59.19,0,0,0,13.72,8.26c1,.41,2,.8,3,1.16a59.16,59.16,0,0,1-32-38.1h0c-.25-.93-.48-1.87-.7-2.81-.06-.28-.13-.56-.18-.84s-.14-.69-.21-1c-.15-.77-.29-1.55-.41-2.33a59.6,59.6,0,0,1,91.57-58.76A60.65,60.65,0,0,1,176,75.27,61.33,61.33,0,0,0,164.51,64.13Z" fill="#009de2"/>
        </g>
      </g>
    </g>
  </g>
  <g id="arrow_aura" data-name="arrow + aura">
    <path d="M114.2,129.22l7,19c.54,1.46,1.53,1.5,2.2.09l23-48.3c.67-1.41,0-2.06-1.39-1.45L96.58,119.24c-1.44.61-1.44,1.62,0,2.25Z" fill="#2d2252"/>
    <path d="M179.67,170.32l.75-1.09A74.84,74.84,0,0,1,61.59,78.58Q59.19,81.4,57,84.45a74.85,74.85,0,0,0,122.63,85.87Z" fill="#2d2252" fill-rule="evenodd"/>
  </g>
</svg>
