<?xml version="1.0" encoding="UTF-8"?> <!-- Generator: Adobe Illustrator 25.0.1, SVG Export Plug-In . SVG Version: 6.00 Build 0) --> <svg xmlns="http://www.w3.org/2000/svg" xmlns:xlink="http://www.w3.org/1999/xlink" version="1.1" id="Ebene_1" x="0px" y="0px" viewBox="0 0 333.9 304.7" style="enable-background:new 0 0 333.9 304.7;" xml:space="preserve"> <style type="text/css"> .st0{fill:url(#SVGID_1_);} .st1{fill:url(#SVGID_2_);} .st2{fill:url(#SVGID_3_);} .st3{fill:url(#SVGID_4_);} .st4{fill:url(#SVGID_5_);} .st5{fill:url(#SVGID_6_);} .st6{fill:#020203;} </style> <g> <g> <linearGradient id="SVGID_1_" gradientUnits="userSpaceOnUse" x1="-1560.4904" y1="1273.5372" x2="-1290.9531" y2="1038.4413" gradientTransform="matrix(0.908 0.4189 -0.4189 0.908 1928.4727 -292.3961)"> <stop offset="0" style="stop-color:#1A1936"></stop> <stop offset="1" style="stop-color:#60C4E5"></stop> </linearGradient> <path class="st0" d="M186.8,228.4c13.6-1.2,26.7-6.1,38-14c10.8-7.7,20-18.2,26-31.1c6-13,8.1-26.5,6.8-40 c-1.2-13.6-6.1-26.7-14-38c-7.7-10.8-18.1-20-31.1-26c-13-6-26.5-8.1-40-6.8c-0.2,0.1-0.4,0-0.7,0.1l7,8.6c10-0.1,20,2,29.6,6.4 c11.5,5.3,20.8,13.3,27.6,22.9c7,9.9,11.2,21.6,12.3,33.5c1,11.7-0.9,23.9-6.1,35.3c-5.3,11.5-13.3,20.8-22.9,27.6 c-9.7,7.1-21.2,11.4-33.4,12.6c-11.4,1-23.4-0.8-34.6-5.8h-17.9c4.1,3,8.6,5.7,13.4,7.9C159.8,227.6,173.4,229.7,186.8,228.4z"></path> <linearGradient id="SVGID_2_" gradientUnits="userSpaceOnUse" x1="-1554.7563" y1="1280.1102" x2="-1285.2189" y2="1045.014" gradientTransform="matrix(0.908 0.4189 -0.4189 0.908 1928.4727 -292.3961)"> <stop offset="0" style="stop-color:#1A1936"></stop> <stop offset="1" style="stop-color:#60C4E5"></stop> </linearGradient> <path class="st1" d="M114.9,290.4c25,11.5,51.9,16.1,78.5,13.6c13.2-1.2,26.4-4.2,39.1-8.9c12.7-4.7,24.8-11,35.6-18.6 c21.8-15.4,39.4-36.4,50.9-61.3c12.1-24.9,16.7-52,14.3-78.6c-1.2-13.2-4.2-26.4-8.9-39.1c-4.7-12.7-11-24.8-18.6-35.6 c-15.5-22.1-36.5-39.6-61.4-51.1C233.9,5.9,223.1,2.4,212.2,0l2.8,10c8.7,2.2,17.3,5.3,25.5,9.1c23.6,10.9,43.3,27.5,57.9,48.1 c7.3,10.2,13.1,21.4,17.7,33.6c4.4,12,7.2,24.5,8.5,36.9c2.3,25.1-2,50.5-12.8,74.1c-10.9,23.6-27.5,43.3-48.1,57.9 c-10.2,7.3-21.4,13.1-33.6,17.5c-12,4.4-24.5,7.2-37.1,8.4c-25.1,2.3-50.5-2-74.1-12.8c-23.6-10.9-43.3-27.5-57.9-48.1 c-4.7-6.6-8.8-13.6-12.3-20.9h-9.8c4.1,9.1,9,17.8,14.7,25.8C69,261.3,89.9,278.9,114.9,290.4z"></path> <linearGradient id="SVGID_3_" gradientUnits="userSpaceOnUse" x1="-1621.6809" y1="1203.384" x2="-1352.1418" y2="968.2863" gradientTransform="matrix(0.908 0.4189 -0.4189 0.908 1928.4727 -292.3961)"> <stop offset="0" style="stop-color:#1A1936"></stop> <stop offset="1" style="stop-color:#60C4E5"></stop> </linearGradient> <path class="st2" d="M125.6,73.9c13.5-9.5,29.3-15.3,45.7-16.9c2.2-0.2,4.5-0.4,6.8-0.4l-6.6-8.6c-0.5-0.2-0.9-0.2-1.4-0.2 c-18,1.7-35.5,8.1-50.2,18.5c-7.5,5.2-14.3,11.5-20.2,18.6h12.8C116.6,80.8,121,77.1,125.6,73.9z"></path> <linearGradient id="SVGID_4_" gradientUnits="userSpaceOnUse" x1="-1516.1506" y1="1324.3743" x2="-1246.6116" y2="1089.2766" gradientTransform="matrix(0.908 0.4189 -0.4189 0.908 1928.4727 -292.3961)"> <stop offset="0" style="stop-color:#1A1936"></stop> <stop offset="1" style="stop-color:#60C4E5"></stop> </linearGradient> <path class="st3" d="M136.3,244.5c17.1,7.9,35.1,10.6,52.7,9c18-1.7,35.5-8.1,50.2-18.5c14.4-10.1,26.4-23.9,34.3-41 c4.3-9.4,7.2-19.1,8.6-29l-8.2-7.7c-0.7,11.1-3.4,22.3-8.4,33c-7.2,15.6-18.1,28.4-31.2,37.5c-13.5,9.5-29.3,15.3-45.7,16.9 c-16,1.5-32.5-1.1-48-8.3c-12-5.5-22.4-13.3-30.7-22.6h-12C107.7,226.6,120.6,237.2,136.3,244.5z"></path> <linearGradient id="SVGID_5_" gradientUnits="userSpaceOnUse" x1="-1527.469" y1="1311.3955" x2="-1257.9308" y2="1076.299" gradientTransform="matrix(0.908 0.4189 -0.4189 0.908 1928.4727 -292.3961)"> <stop offset="0" style="stop-color:#1A1936"></stop> <stop offset="1" style="stop-color:#60C4E5"></stop> </linearGradient> <path class="st4" d="M96.8,249.3l11.8-2.2C98,239.3,89.1,230,81.8,219.8c-1.4-2-2.7-4-4-6.1H67.5c2.2,3.9,4.5,7.6,7.1,11.3 C80.9,233.9,88.3,242,96.8,249.3z"></path> <linearGradient id="SVGID_6_" gradientUnits="userSpaceOnUse" x1="-1573.7802" y1="1258.2998" x2="-1304.2419" y2="1023.2032" gradientTransform="matrix(0.908 0.4189 -0.4189 0.908 1928.4727 -292.3961)"> <stop offset="0" style="stop-color:#1A1936"></stop> <stop offset="1" style="stop-color:#60C4E5"></stop> </linearGradient> <path class="st5" d="M110.5,52.8c17.1-12,37.2-19.5,58.2-21.5c20.3-1.8,41.2,1.4,61.1,10.6c19.8,9.1,35.8,23,47.7,39.6 c12,17.1,19.5,37.2,21.5,58.2c1.8,20.3-1.4,41.2-10.6,61.1c-1.6,3.4-3.3,6.8-5.2,9.8l10.5-0.3c1-1.8,2-3.9,2.9-5.7 c9.8-21.2,13.4-43.8,11.2-65.7c-2.1-22.5-10.1-44.1-23-62.5c-12.7-17.9-29.8-32.8-51.2-42.7c-21.4-9.9-43.8-13.4-65.7-11.2 c-22.5,2.1-44.1,10.1-62.5,23C90.9,55.7,78.3,69,68.8,84.9h10.6C87.9,72.1,98.4,61.4,110.5,52.8z"></path> </g> <g> <path class="st6" d="M30.6,119.8c0-9.8-8.3-12.3-17.6-12.3H0.2v40.9h9v-16.1h4l10.3,16.1h10.3l-11.5-17.3 C27.8,129.3,30.6,125,30.6,119.8z M13.7,125.5H9.2v-10.2h3.4c6.7,0,9,1.5,9,5.1C21.7,124.2,18.8,125.5,13.7,125.5z"></path> <g> <path class="st6" d="M62,133.8c0-9.3-6.4-13.8-13.3-13.8c-7.7,0-14.6,5.8-14.6,14.6c0,8.7,6.6,14.4,15.7,14.4 c3.7,0,7.8-0.8,10.6-2.5v-7.2c-2.9,2-6.3,3-9.4,3c-4,0-7.1-1.7-8.1-5.6h18.8C62,136,62,134.8,62,133.8z M42.9,131.3 c0.7-3.2,3-4.8,5.7-4.8c2.8,0,5,1.8,5.5,4.8H42.9z"></path> </g> <path class="st6" d="M92,141.9c-1.2,0-1.7-0.9-1.7-2.2v-9.4c0-3.5-1-6-3.1-7.7c-2.2-1.8-5.5-2.7-9.3-2.7c-4.1,0-7.4,1-9.7,2.1v7.4 c2.2-1.2,5-2.2,8.1-2.2c2,0,3.5,0.5,4.3,1.2c0.6,0.6,1.1,1.6,1.1,2.9v1.1c-1.5-0.3-3.2-0.5-4.8-0.5c-2.9,0-5.6,0.5-7.8,2 c-2,1.4-3.4,3.7-3.4,6.7c0,2.9,1.2,5.1,3.3,6.5c1.8,1.2,4.1,1.8,6.4,1.8c3.2,0,5.9-1,7.7-2.3h0.1c1.5,1.6,3.7,2.2,5.9,2.2l4.2-7.3 C93,141.8,92.5,141.9,92,141.9z M81.8,141.5c-1,0.6-2.4,1.1-3.9,1.1c-2,0-3.6-1-3.6-2.8c0-2.1,2.2-2.8,4.4-2.8 c0.9,0,2.1,0.1,3,0.4V141.5z"></path> <rect x="97.9" y="105.2" class="st6" width="8.6" height="43.1"></rect> <polygon class="st6" points="140.6,140.5 122.7,140.5 122.7,107.5 113.8,107.5 113.8,148.4 140.6,148.4 "></polygon> <path class="st6" d="M166.7,148.9l4.1-7v-0.2c-0.5,0.2-1,0.3-1.4,0.3c-1.2,0-1.7-0.9-1.7-2.2v-9.4c0-3.5-1-6-3.1-7.7 c-2.2-1.8-5.5-2.7-9.3-2.7c-4.1,0-7.4,1-9.7,2.1v7.4c2.2-1.2,5-2.2,8.1-2.2c2,0,3.5,0.5,4.3,1.2c0.6,0.6,1.1,1.6,1.1,2.9v1.1 c-1.5-0.3-3.2-0.5-4.8-0.5c-2.9,0-5.6,0.5-7.8,2c-2,1.4-3.4,3.7-3.4,6.7c0,2.9,1.2,5.1,3.3,6.5c1.8,1.2,4.1,1.8,6.4,1.8 c3.2,0,5.9-1,7.7-2.3h0.1C162.2,148.2,164.4,148.9,166.7,148.9C166.7,148.9,166.7,148.9,166.7,148.9z M159.1,141.5 c-1,0.6-2.4,1.1-3.9,1.1c-2,0-3.6-1-3.6-2.8c0-2.1,2.2-2.8,4.4-2.8c0.9,0,2.1,0.1,3,0.4V141.5z"></path> <path class="st6" d="M188.8,149c8.6,0,15-6.2,15-15c0-7.6-4.9-12.7-10.7-13.8l-5.5,7c0.3,0,0.6-0.1,0.9-0.1c4.2,0,6.7,3.2,6.7,7.2 s-2.4,7.7-7,7.7c-1.6,0-3.3-0.5-4.4-1.1v-12.5v-6.7v-16.6h-8.6v43.5l6.7-1.1C183.9,148.4,186.1,149,188.8,149z"></path> <polygon class="st6" points="22.7,176.6 11.3,176.6 7.1,181.9 22.7,181.9 22.7,197 28.7,197 28.7,162.8 22.7,162.8 "></polygon> <rect y="162.8" class="st6" width="6" height="34.3"></rect> <path class="st6" d="M53.7,190.5v-8.9c0-2.9-0.9-4.9-2.5-6.2c-1.8-1.5-4.5-2.2-7.5-2.2c-3.3,0-6,0.9-7.9,1.9v5.2 c1.8-1.1,4.2-2.1,7-2.1c1.8,0,3.1,0.4,3.9,1.1c0.8,0.7,1.1,1.8,1.1,3.2v1.4c-1.4-0.3-2.9-0.5-4.5-0.5c-2.4,0-4.8,0.4-6.5,1.6 c-1.8,1.2-3,3.1-3,5.6c0,2.3,1,4.2,2.6,5.3c1.6,1.1,3.5,1.6,5.4,1.6c3.1,0,5.5-1.1,6.9-2.2H49c1.1,1.4,2.8,2.1,4.7,2.1l2.9-5 c-0.4,0.2-0.8,0.3-1.2,0.3C54.2,192.7,53.7,191.8,53.7,190.5z M48,191.6c-1.1,0.8-2.8,1.4-4.6,1.4c-2,0-3.7-0.9-3.7-2.8 c0-2.3,2.3-3,4.7-3c1.1,0,2.6,0.2,3.6,0.5V191.6z"></path> <path class="st6" d="M89.5,173.2c-3,0-5.9,1.2-8.5,3.6c-1.4-2.6-4.2-3.6-7-3.6c-3,0-5.5,1.3-7.4,3l-0.1,0v-2.5h-5.7V197h5.7v-16 c1.4-1.5,3.6-2.8,5.8-2.8c1.1,0,2.2,0.3,3,1.2c0.7,0.8,0.9,1.8,0.9,3.9V197h5.7v-14.6c0-0.5,0-1,0-1.4c1.4-1.5,3.6-2.7,5.8-2.7 c1.2,0,2.2,0.4,3,1.2c0.7,0.8,1,1.9,1,3.9V197h5.7v-14.6c0-3.3-0.6-5.3-2-6.9C94.2,174.1,92.1,173.2,89.5,173.2z"></path> <path class="st6" d="M117.4,173.3l-3.9,5c0.5-0.1,1-0.2,1.5-0.2c4.1,0,6.6,3.1,6.6,7.1c0,4.1-2.6,7.5-6.9,7.5 c-1.7,0-3.6-0.5-4.8-1.2v-11.7v-4.9v-14.1h-5.7v36.3l4.9-0.9c1.7,0.7,3.6,1.2,5.8,1.2c7.2,0,12.5-5.3,12.5-12.5 C127.4,178.3,122.9,173.8,117.4,173.3z"></path> <path class="st6" d="M148.5,189.5c-1.6,1.8-3.8,3-6.1,3c-1.1,0-2.2-0.3-3.1-1.3c-0.7-0.8-1-2-1-4.1v-13.4h-5.7V188 c0,3.4,0.7,5.5,2.1,7.1c1.4,1.6,3.6,2.5,6.2,2.5c3.1,0,5.6-1.3,7.6-3.1l0.1,0v2.6h5.7v-23.3h-5.7V189.5z"></path> <path class="st6" d="M166.8,177.1L166.8,177.1l-0.1-3.3H161V197h5.7v-14.6c1.4-2,3.2-3.1,5.4-3.4l3-5.2v-0.2 c-0.5-0.1-1-0.2-1.6-0.2C170.8,173.5,168.4,174.8,166.8,177.1z"></path> <path class="st6" d="M189.5,173.2c-7.4,0-12.1,5.5-12.1,12.2c0,6.9,5.1,11.5,11.1,11.5c2.2,0,4.4-0.6,5.9-1.7l0.1,0.1v1.5 c0,3.9-2.6,6.2-6.6,6.2c-2.6,0-5.2-0.9-7.5-2.4v5.7c2,1,4.7,1.7,7.7,1.7c7.3,0,12.1-4.2,12.1-11.2v-23.1l-4.9,0.9 C193.7,173.7,191.8,173.2,189.5,173.2z M194.6,190.7c-1.2,0.9-3.1,1.5-4.8,1.5c-4,0-6.6-3-6.6-7c0-3.8,2.4-7,6.6-7 c1.8,0,3.6,0.5,4.8,1.2V190.7z"></path> </g> </g> </svg>