<svg id="positiv" xmlns="http://www.w3.org/2000/svg" viewBox="0 0 505.36 246.9">
  <g id="Eclipse_MOSAIC" data-name="Eclipse MOSAIC">
    <g id="Eclipse_MOSAIC-2" data-name="Eclipse MOSAIC">
      <g>
        <path d="M218.56,78.15a.49.49,0,0,1,.29-.07h15.23c.17,0,.25.1.25.29v1.11a.35.35,0,0,1-.07.26.39.39,0,0,1-.25.07H220.9a.62.62,0,0,0-.29,0,.4.4,0,0,0-.07.27v10a.3.3,0,0,0,.07.23.5.5,0,0,0,.29.06h10.15c.2,0,.29.09.29.29v1.15c0,.12,0,.2-.07.23a.4.4,0,0,1-.25.06H220.9a.52.52,0,0,0-.29,0,.4.4,0,0,0-.07.27v10.26a.4.4,0,0,0,.07.27.5.5,0,0,0,.29.06h13.65a.41.41,0,0,1,.25.05s.07.11.07.23v1.15a.25.25,0,0,1-.29.29H218.85a.42.42,0,0,1-.29-.07c-.05,0-.07-.15-.07-.32V78.48A.5.5,0,0,1,218.56,78.15Z" fill="#2d2252"/>
        <path d="M259.23,78.71a10.18,10.18,0,0,1,3.44,2.63,6.57,6.57,0,0,1,1.58,3.51V85a.19.19,0,0,1-.05.15.37.37,0,0,1-.17,0l-1.62.15h-.07c-.09,0-.15-.09-.18-.25A7.12,7.12,0,0,0,255,79.48a7.56,7.56,0,0,0-6.51,3.06q-2.24,3.06-2.23,9,0,5.76,2.26,8.8a7.88,7.88,0,0,0,6.74,3,7.6,7.6,0,0,0,4.57-1.31,8.89,8.89,0,0,0,2.88-4.12c0-.1.11-.14.25-.11l1.44.39c.1,0,.13.16.11.33a9.34,9.34,0,0,1-3.48,4.77,10.75,10.75,0,0,1-14-1.73q-2.9-3.58-2.89-10.06a19.28,19.28,0,0,1,1.29-7.42,10.38,10.38,0,0,1,3.73-4.73A10.17,10.17,0,0,1,255,77.72,9.78,9.78,0,0,1,259.23,78.71Z" fill="#2d2252"/>
        <path d="M276.43,78.15a.48.48,0,0,1,.27-.07h1.37a.39.39,0,0,1,.25.07.5.5,0,0,1,.07.33v24.26c0,.14,0,.23.07.27a.5.5,0,0,0,.29.06h12.92a.44.44,0,0,1,.26.05.3.3,0,0,1,.07.23v1.15a.25.25,0,0,1-.29.29h-15a.36.36,0,0,1-.29-.09.47.47,0,0,1-.07-.3V78.48A.43.43,0,0,1,276.43,78.15Z" fill="#2d2252"/>
        <path d="M305.34,78.08a.39.39,0,0,1,.25.07.5.5,0,0,1,.07.33v25.84a.55.55,0,0,1-.09.38.57.57,0,0,1-.38.09H304a.55.55,0,0,1-.34-.07c-.06,0-.09-.15-.09-.32V78.48a.43.43,0,0,1,.09-.33.48.48,0,0,1,.27-.07Z" fill="#2d2252"/>
        <path d="M335.12,91.29a11.32,11.32,0,0,1-6.86,1.87h-6.48a.29.29,0,0,0-.33.33v10.94c0,.24-.1.36-.32.36h-1.4a.29.29,0,0,1-.33-.32v-26a.57.57,0,0,1,.07-.33.49.49,0,0,1,.29-.07H328a12,12,0,0,1,7.05,1.84,6.48,6.48,0,0,1,2.59,5.68A6.61,6.61,0,0,1,335.12,91.29ZM333.55,81.1a10,10,0,0,0-5.62-1.33h-6.12q-.36,0-.36.33v11c0,.24.1.36.29.36h6.45a8.85,8.85,0,0,0,5.4-1.44,5.27,5.27,0,0,0,1.9-4.5A4.94,4.94,0,0,0,333.55,81.1Z" fill="#2d2252"/>
        <path d="M357.52,79.48a7.34,7.34,0,0,0-4.69,1.39,4.72,4.72,0,0,0-1.72,3.91q0,3.24,4.24,4.75l5,1.8a10.1,10.1,0,0,1,4.5,2.77,6.08,6.08,0,0,1,1.37,4,6.19,6.19,0,0,1-2.39,5.17,10.53,10.53,0,0,1-6.57,1.85,11.88,11.88,0,0,1-5.31-1.1,9.74,9.74,0,0,1-3.8-3.36.66.66,0,0,1-.11-.29c0-.14.11-.29.33-.43l.61-.43a.67.67,0,0,1,.43-.18.48.48,0,0,1,.32.18,11.16,11.16,0,0,0,3.19,2.95,8.78,8.78,0,0,0,4.3.9,9.08,9.08,0,0,0,5.11-1.23,4.31,4.31,0,0,0,1.84-3.88,4.19,4.19,0,0,0-.95-2.79,9,9,0,0,0-3.66-2.15l-5.43-2a7.83,7.83,0,0,1-3.91-2.7,6.84,6.84,0,0,1,1.15-9,9.45,9.45,0,0,1,6.18-1.91,10.38,10.38,0,0,1,8,3.49.41.41,0,0,1,.15.29.38.38,0,0,1-.15.25l-1,.83a.3.3,0,0,1-.18.11c-.07,0-.18-.1-.32-.29A8.27,8.27,0,0,0,357.52,79.48Z" fill="#2d2252"/>
        <path d="M378.24,78.15a.47.47,0,0,1,.29-.07h15.23c.16,0,.25.1.25.29v1.11a.35.35,0,0,1-.08.26.37.37,0,0,1-.25.07h-13.1a.59.59,0,0,0-.29,0c-.05,0-.07.13-.07.27v10c0,.12,0,.2.07.23a.48.48,0,0,0,.29.06h10.15a.25.25,0,0,1,.29.29v1.15a.3.3,0,0,1-.07.23.43.43,0,0,1-.26.06H380.58a.5.5,0,0,0-.29,0c-.05,0-.07.13-.07.27v10.26c0,.14,0,.23.07.27a.48.48,0,0,0,.29.06h13.64a.44.44,0,0,1,.26.05.3.3,0,0,1,.07.23v1.15a.25.25,0,0,1-.29.29H378.53a.41.41,0,0,1-.29-.07c-.05,0-.07-.15-.07-.32V78.48A.5.5,0,0,1,378.24,78.15Z" fill="#2d2252"/>
      </g>
      <g>
        <path d="M218.83,163.41a1.59,1.59,0,0,1-.35-1.09v-44.8c0-.81.36-1.22,1.09-1.22h13.24a2.08,2.08,0,0,1,1,.2,1.34,1.34,0,0,1,.51.76L244,144.08q.19.51.45.51t.45-.51l9.22-26.3c.25-1,.72-1.48,1.4-1.48h13.76c.64,0,1,.39,1,1.16v44.8a1.52,1.52,0,0,1-.38,1.18,1.74,1.74,0,0,1-1.22.35H260.4a1.46,1.46,0,0,1-1.06-.29,1.38,1.38,0,0,1-.29-1V130.64c0-.3-.06-.45-.19-.45s-.25.17-.38.51l-11.2,32.07a1.31,1.31,0,0,1-1.35,1h-5.31a1.29,1.29,0,0,1-1.41-1l-11.07-31.62c-.13-.34-.25-.51-.38-.51s-.26.19-.26.58v31.42a.91.91,0,0,1-1.15,1.15h-6.53A1.28,1.28,0,0,1,218.83,163.41Z" fill="#2d2252"/>
        <path d="M284.61,161.52a19.13,19.13,0,0,1-7.62-8.35,29.22,29.22,0,0,1-2.65-12.93A29.72,29.72,0,0,1,277,127.15a19.74,19.74,0,0,1,7.65-8.51,22.2,22.2,0,0,1,11.62-3,21.91,21.91,0,0,1,11.52,3,19.72,19.72,0,0,1,7.61,8.51,29.4,29.4,0,0,1,2.69,13,29.22,29.22,0,0,1-2.65,12.89,19.43,19.43,0,0,1-7.59,8.42,22.15,22.15,0,0,1-11.58,2.94A22.65,22.65,0,0,1,284.61,161.52Zm19.39-8.8q2.4-3.84,2.4-12.42,0-8.76-2.46-12.8a8.36,8.36,0,0,0-7.65-4c-3.54,0-6.14,1.35-7.78,4s-2.46,7-2.46,12.8.81,9.86,2.43,12.42,4.22,3.84,7.81,3.84S302.4,155.28,304,152.72Z" fill="#2d2252"/>
        <path d="M344.72,124.59a12.77,12.77,0,0,0-5.6-1,10.57,10.57,0,0,0-5.95,1.4,4.34,4.34,0,0,0-2.05,3.72q0,3.33,5.19,4.86l10.11,2.88q5.7,1.6,8.48,5.06a12.8,12.8,0,0,1,2.78,8.32,13.18,13.18,0,0,1-2.3,7.77,14.65,14.65,0,0,1-6.62,5.09,26.52,26.52,0,0,1-10.15,1.79,29.9,29.9,0,0,1-11.77-2.21,16.08,16.08,0,0,1-7.68-6,1.63,1.63,0,0,1-.26-.84,1.54,1.54,0,0,1,.64-1.08l4.93-3.4a2.32,2.32,0,0,1,1.15-.38,1.17,1.17,0,0,1,1,.51,15.32,15.32,0,0,0,4.8,4.35,17.23,17.23,0,0,0,13.18-.06,4.35,4.35,0,0,0,2.44-4,4,4,0,0,0-1.22-2.95,10.12,10.12,0,0,0-4.1-2.11L332,143.44a16.4,16.4,0,0,1-8.51-5.15,12.48,12.48,0,0,1-3-8.22,12.63,12.63,0,0,1,2.27-7.37,15.36,15.36,0,0,1,6.43-5.15,23,23,0,0,1,9.6-1.89,25.84,25.84,0,0,1,9.86,1.83,16.08,16.08,0,0,1,6.85,4.89,1.64,1.64,0,0,1,.38.9.91.91,0,0,1-.38.7l-5.38,4a1.3,1.3,0,0,1-.57.26c-.22,0-.56-.24-1-.71A12.72,12.72,0,0,0,344.72,124.59Z" fill="#2d2252"/>
        <path d="M357.59,162.7a1.85,1.85,0,0,1,.12-.76l15.94-44.36a2.24,2.24,0,0,1,.61-1,1.62,1.62,0,0,1,1.05-.29h9.6a2,2,0,0,1,1.22.39,1.89,1.89,0,0,1,.7,1l15.81,44.36a1.82,1.82,0,0,1,.13.57,1.48,1.48,0,0,1-.22.83.76.76,0,0,1-.68.32h-9.4a1.15,1.15,0,0,1-1.22-.89l-3.33-9.35a1.35,1.35,0,0,0-.29-.54.71.71,0,0,0-.54-.16H371.47a.8.8,0,0,0-.83.64L367.25,163a1.35,1.35,0,0,1-1.34.83h-7.36C357.91,163.79,357.59,163.43,357.59,162.7Zm26.88-18.36c.42,0,.64-.17.64-.52a2,2,0,0,0-.07-.57l-5.37-15c-.13-.25-.28-.38-.45-.38s-.26.15-.39.45l-5.44,14.91a2.13,2.13,0,0,0-.12.57c0,.35.23.52.7.52Z" fill="#2d2252"/>
        <path d="M415.39,116.3c.68,0,1,.39,1,1.16v44.8a1.52,1.52,0,0,1-.39,1.18,2,2,0,0,1-1.34.35h-8.07a1.5,1.5,0,0,1-1.09-.32,1.4,1.4,0,0,1-.32-1V117.52c0-.81.35-1.22,1-1.22Z" fill="#2d2252"/>
        <path d="M451,117.52a18.49,18.49,0,0,1,6.76,5.06,15.22,15.22,0,0,1,3.36,7.16,4,4,0,0,1,.13,1,.57.57,0,0,1-.2.51,1.4,1.4,0,0,1-.57.19l-8.64.58a1,1,0,0,1-.74-.19,2,2,0,0,1-.29-.77,10.34,10.34,0,0,0-2.81-5.57,7.78,7.78,0,0,0-5.63-2q-10.25,0-10.25,16.39,0,8.5,2.56,12.41t7.81,3.91a10.8,10.8,0,0,0,6.5-1.92,13.36,13.36,0,0,0,4.32-6.28.81.81,0,0,1,.83-.44,2.09,2.09,0,0,1,.58.06l6.27,1.34c.6.22.83.75.7,1.6a16.88,16.88,0,0,1-3,6,20.2,20.2,0,0,1-16.67,7.93,21,21,0,0,1-11.49-3.1,20.1,20.1,0,0,1-7.52-8.71,30.2,30.2,0,0,1-2.63-13,29,29,0,0,1,2.63-12.73,19,19,0,0,1,7.52-8.35,22.05,22.05,0,0,1,11.49-2.92A21.37,21.37,0,0,1,451,117.52Z" fill="#2d2252"/>
      </g>
    </g>
    <g id="Medaillion_5" data-name="Medaillion 5">
      <g id="neu_Kopie_8_Kopie_2_Kopie" data-name="neu Kopie 8 Kopie 2 Kopie">
        <g>
          <circle cx="123.46" cy="120.63" r="69.17" fill="none"/>
          <path d="M189.88,142.21a61.14,61.14,0,0,0-39-77.77,61.16,61.16,0,0,0-47.14,3.9A61.41,61.41,0,0,0,85,83.41c-.56.67-1.1,1.36-1.63,2.06l-.48.63c-.38.52-.76,1.05-1.13,1.58l-.45.64c-.45.67-.89,1.35-1.31,2-.2.32-.39.65-.58,1l-.67,1.16c-.13.23-.27.44-.39.67l.09-.13c-.84,1.53-1.62,3.08-2.33,4.67a59.13,59.13,0,0,0-3.61,15.59c-.1,1.06-.16,2.11-.2,3.17A60.42,60.42,0,0,1,75,104.87,59,59,0,0,1,98.67,74.24h0c.8-.53,1.63-1,2.45-1.54l.74-.43.93-.52c.69-.38,1.39-.76,2.09-1.11a59.6,59.6,0,0,1,84.18,68.93,61,61,0,0,1-6.24,17A61.23,61.23,0,0,0,189.88,142.21Z" fill="#7aba1e"/>
        </g>
      </g>
      <g id="neu_Kopie_6_Kopie_2_Kopie" data-name="neu Kopie 6 Kopie 2 Kopie">
        <g>
          <circle cx="123.46" cy="120.63" r="69.17" fill="none"/>
          <path d="M123.46,190.46A61.13,61.13,0,0,0,180.61,153a61.29,61.29,0,0,0,0-47.34A61.09,61.09,0,0,0,147,72.55c-.81-.32-1.63-.62-2.46-.91l-.74-.26c-.62-.21-1.24-.4-1.86-.59l-.75-.23c-.77-.22-1.55-.43-2.34-.62l-1.1-.25-1.31-.28-.75-.16.15,0c-1.71-.32-3.43-.59-5.16-.77a59,59,0,0,0-16,1.39c-1,.23-2,.5-3.07.79a59.46,59.46,0,0,1,34.56,3.75,59,59,0,0,1,13.73,8.26h0c.75.6,1.49,1.23,2.21,1.86l.65.57.78.72c.57.54,1.15,1.09,1.7,1.65a59.61,59.61,0,0,1-39.55,101.36,61.44,61.44,0,0,1-18.06-.69A61.19,61.19,0,0,0,123.46,190.46Z" fill="#efd830"/>
        </g>
      </g>
      <g id="neu_Kopie_4_Kopie_2_Kopie" data-name="neu Kopie 4 Kopie 2 Kopie">
        <g>
          <circle cx="123.42" cy="120.49" r="69.17" transform="translate(-49.05 122.56) rotate(-45)" fill="none"/>
          <path d="M57,142.07A61.14,61.14,0,0,0,176.4,128c.06-.87.1-1.74.12-2.62,0-.26,0-.52,0-.79,0-.65,0-1.29,0-1.94,0-.26,0-.52,0-.79,0-.8-.07-1.61-.13-2.41,0-.38-.07-.75-.1-1.13s-.09-.89-.14-1.33c0-.25,0-.51-.08-.77v.16q-.31-2.59-.85-5.14A59.48,59.48,0,0,0,169,96.49c-.54-.91-1.11-1.8-1.7-2.68a60.44,60.44,0,0,1,4.65,10.93,59.15,59.15,0,0,1-1.15,38.7h0c-.34.91-.71,1.8-1.09,2.69-.12.26-.22.53-.34.79l-.45,1c-.33.72-.67,1.43-1,2.13a59.63,59.63,0,0,1-79.5,25.83A60.14,60.14,0,0,1,70,161.73a59.46,59.46,0,0,1-10.8-18,61.07,61.07,0,0,1-4.92-17.39A61.55,61.55,0,0,0,57,142.07Z" fill="#f88d2b"/>
        </g>
      </g>
      <g id="neu_Kopie_2_Kopie_2_Kopie" data-name="neu Kopie 2 Kopie 2 Kopie">
        <g>
          <circle cx="123.66" cy="120.56" r="69.17" transform="translate(-47.25 95.71) rotate(-36)" fill="none"/>
          <path d="M82.61,64.06A61.15,61.15,0,0,0,132.9,173.27c.85-.21,1.69-.45,2.53-.7l.75-.24c.62-.19,1.23-.39,1.85-.61l.73-.26c.76-.27,1.52-.56,2.26-.87l1-.44,1.23-.54.7-.32-.15.05c1.58-.74,3.12-1.53,4.63-2.4a59.35,59.35,0,0,0,12.09-10.5c.69-.79,1.37-1.61,2-2.44a60.46,60.46,0,0,1-9,7.8,59,59,0,0,1-37.17,10.86h0c-1,0-1.92-.11-2.88-.2l-.86-.08-1-.13c-.79-.09-1.57-.2-2.35-.33A59.61,59.61,0,0,1,81.72,66.67a61.16,61.16,0,0,1,15-10.05A61.45,61.45,0,0,0,82.61,64.06Z" fill="#68145c"/>
        </g>
      </g>
      <g id="neu_Kopie_11_Kopie" data-name="neu Kopie 11 Kopie">
        <g>
          <circle cx="123.46" cy="120.63" r="69.17" fill="none"/>
          <path d="M164.51,64.13A61.15,61.15,0,0,0,76.19,145.7c.46.74,1,1.47,1.45,2.19l.45.64c.38.53.76,1.05,1.15,1.57l.48.62c.49.64,1,1.26,1.52,1.88l.75.85.89,1,.52.57-.1-.12q1.78,1.9,3.72,3.65a59.19,59.19,0,0,0,13.72,8.26c1,.41,2,.8,3,1.16a59.16,59.16,0,0,1-32-38.1h0c-.25-.93-.48-1.87-.7-2.81-.06-.28-.13-.56-.18-.84s-.14-.69-.21-1c-.15-.77-.29-1.55-.41-2.33a59.6,59.6,0,0,1,91.57-58.76A60.65,60.65,0,0,1,176,75.27,61.33,61.33,0,0,0,164.51,64.13Z" fill="#009de2"/>
        </g>
      </g>
    </g>
  </g>
  <g id="arrow_aura" data-name="arrow + aura">
    <path d="M114.2,129.22l7,19c.54,1.46,1.53,1.5,2.2.09l23-48.3c.67-1.41,0-2.06-1.39-1.45L96.58,119.24c-1.44.61-1.44,1.62,0,2.25Z" fill="#2d2252"/>
    <path d="M179.67,170.32l.75-1.09A74.84,74.84,0,0,1,61.59,78.58Q59.19,81.4,57,84.45a74.85,74.85,0,0,0,122.63,85.87Z" fill="#2d2252" fill-rule="evenodd"/>
  </g>
</svg>
