<svg id="positiv" xmlns="http://www.w3.org/2000/svg" viewBox="0 0 246.9 246.9">
  <g id="Medaillion_10" data-name="Medaillion 10">
    <g id="neu_Kopie_9_Kopie_2" data-name="neu Kopie 9 Kopie 2">
      <g>
        <circle cx="123.46" cy="120.63" r="69.17" fill="none"/>
        <path d="M189.88,99a61.11,61.11,0,0,0-53.31-42.76A61.14,61.14,0,0,0,76.76,89.94a61.2,61.2,0,0,0-6.28,23.18c-.06.88-.09,1.75-.11,2.62,0,.27,0,.53,0,.79,0,.65,0,1.3,0,2,0,.26,0,.52,0,.78,0,.81.07,1.61.13,2.42,0,.37.07.75.11,1.12s.08.89.13,1.33c0,.26,0,.52.08.77v-.15c.22,1.72.5,3.44.86,5.14a59.23,59.23,0,0,0,6.24,14.74c.54.91,1.11,1.8,1.7,2.68A60.7,60.7,0,0,1,75,136.38a59,59,0,0,1,1.15-38.71h0c.34-.9.7-1.8,1.08-2.68l.34-.79.45-1c.34-.71.68-1.42,1-2.12a59.6,59.6,0,0,1,108.62,6.28,61.13,61.13,0,0,1,4.92,17.4A61.19,61.19,0,0,0,189.88,99Z" fill="#68145c"/>
      </g>
    </g>
    <g id="neu_Kopie_8_Kopie_3" data-name="neu Kopie 8 Kopie 3">
      <g>
        <circle cx="123.46" cy="120.63" r="69.17" fill="none"/>
        <path d="M189.88,142.21a61.14,61.14,0,0,0-39-77.77,61.16,61.16,0,0,0-47.14,3.9A61.41,61.41,0,0,0,85,83.41c-.56.67-1.1,1.36-1.63,2.06l-.48.63c-.38.52-.76,1.05-1.13,1.58l-.45.64c-.45.67-.89,1.35-1.31,2-.2.32-.39.65-.58,1l-.67,1.16c-.13.23-.27.44-.39.67l.09-.13c-.84,1.53-1.62,3.08-2.33,4.67a59.13,59.13,0,0,0-3.61,15.59c-.1,1.06-.16,2.11-.2,3.17A60.42,60.42,0,0,1,75,104.87,59,59,0,0,1,98.67,74.24h0c.8-.53,1.63-1,2.45-1.54l.74-.43.93-.52c.69-.38,1.39-.76,2.09-1.11a59.6,59.6,0,0,1,84.18,68.93,61,61,0,0,1-6.24,17A61.23,61.23,0,0,0,189.88,142.21Z" fill="#f88d2b"/>
      </g>
    </g>
    <g id="neu_Kopie_7_Kopie_2" data-name="neu Kopie 7 Kopie 2">
      <g>
        <circle cx="123.46" cy="120.63" r="69.17" fill="none"/>
        <path d="M164.51,177.12a61.12,61.12,0,0,0,24.2-63.91,61.22,61.22,0,0,0-50.49-46.49,61.15,61.15,0,0,0-24,1.2c-.85.21-1.69.45-2.53.7l-.76.23-1.84.61-.74.26c-.76.28-1.51.57-2.26.87l-1,.45c-.41.17-.82.35-1.22.54l-.71.31.15,0q-2.37,1.11-4.63,2.41A58.94,58.94,0,0,0,86.57,84.74c-.7.8-1.37,1.61-2,2.45a60.39,60.39,0,0,1,9-7.8,59.12,59.12,0,0,1,37.17-10.87h0c1,0,1.93.12,2.89.21l.85.08c.36,0,.71.08,1.06.12.78.1,1.56.21,2.34.34A59.6,59.6,0,0,1,165.4,174.51a61.14,61.14,0,0,1-15,10.06A61.22,61.22,0,0,0,164.51,177.12Z" fill="#efd830"/>
      </g>
    </g>
    <g id="neu_Kopie_6_Kopie_3" data-name="neu Kopie 6 Kopie 3">
      <g>
        <circle cx="123.46" cy="120.63" r="69.17" fill="none"/>
        <path d="M123.46,190.46A61.13,61.13,0,0,0,180.61,153a61.29,61.29,0,0,0,0-47.34A61.09,61.09,0,0,0,147,72.55c-.81-.32-1.63-.62-2.46-.91l-.74-.26c-.62-.21-1.24-.4-1.86-.59l-.75-.23c-.77-.22-1.55-.43-2.34-.62l-1.1-.25-1.31-.28-.75-.16.15,0c-1.71-.32-3.43-.59-5.16-.77a59,59,0,0,0-16,1.39c-1,.23-2,.5-3.07.79a59.46,59.46,0,0,1,34.56,3.75,59,59,0,0,1,13.73,8.26h0c.75.6,1.49,1.23,2.21,1.86l.65.57.78.72c.57.54,1.15,1.09,1.7,1.65a59.61,59.61,0,0,1-39.55,101.36,61.44,61.44,0,0,1-18.06-.69A61.19,61.19,0,0,0,123.46,190.46Z" fill="#7aba1e"/>
      </g>
    </g>
    <g id="neu_Kopie_5_Kopie_2" data-name="neu Kopie 5 Kopie 2">
      <g>
        <circle cx="123.46" cy="120.63" r="69.17" fill="none"/>
        <path d="M82.41,177.12a61.16,61.16,0,0,0,68.27,3.27,61.13,61.13,0,0,0,20.06-84.84c-.47-.74-1-1.47-1.45-2.19l-.46-.64c-.37-.53-.76-1-1.15-1.57-.16-.2-.31-.41-.47-.62-.5-.64-1-1.26-1.53-1.88-.24-.29-.49-.57-.74-.85s-.59-.67-.9-1l-.51-.57.09.12c-1.19-1.26-2.42-2.49-3.71-3.65a59.23,59.23,0,0,0-13.72-8.25c-1-.42-2-.81-2.95-1.17A59.69,59.69,0,0,1,169,96.62a59,59,0,0,1,6.25,14.76h0c.26.93.49,1.87.7,2.81.06.28.13.56.19.84l.21,1c.14.77.29,1.55.4,2.33a59.61,59.61,0,0,1-91.57,58.76A60.8,60.8,0,0,1,71,166,61,61,0,0,0,82.41,177.12Z" fill="#009de2"/>
      </g>
    </g>
    <g id="neu_Kopie_4_Kopie_3" data-name="neu Kopie 4 Kopie 3">
      <g>
        <circle cx="123.42" cy="120.49" r="69.17" transform="translate(-49.05 122.56) rotate(-45)" fill="none"/>
        <path d="M57,142.07A61.14,61.14,0,0,0,176.4,128c.06-.87.1-1.74.12-2.62,0-.26,0-.52,0-.79,0-.65,0-1.29,0-1.94,0-.26,0-.52,0-.79,0-.8-.07-1.61-.13-2.41,0-.38-.07-.75-.1-1.13s-.09-.89-.14-1.33c0-.25,0-.51-.08-.77v.16q-.31-2.59-.85-5.14A59.48,59.48,0,0,0,169,96.49c-.54-.91-1.11-1.8-1.7-2.68a60.44,60.44,0,0,1,4.65,10.93,59.15,59.15,0,0,1-1.15,38.7h0c-.34.91-.71,1.8-1.09,2.69-.12.26-.22.53-.34.79l-.45,1c-.33.72-.67,1.43-1,2.13a59.63,59.63,0,0,1-79.5,25.83A60.14,60.14,0,0,1,70,161.73a59.46,59.46,0,0,1-10.8-18,61.07,61.07,0,0,1-4.92-17.39A61.55,61.55,0,0,0,57,142.07Z" fill="#68145c"/>
      </g>
    </g>
    <g id="neu_Kopie_3_Kopie_2" data-name="neu Kopie 3 Kopie 2">
      <g>
        <circle cx="123.66" cy="120.56" r="69.17" transform="translate(-39.92 175.94) rotate(-62.98)" fill="none"/>
        <path d="M57.24,99a61.15,61.15,0,0,0,104.88,58.79c.56-.67,1.1-1.36,1.63-2.05l.47-.63c.39-.52.77-1.05,1.14-1.58.14-.22.3-.43.44-.65.45-.66.89-1.34,1.32-2l.57-1c.23-.38.46-.77.68-1.16.12-.22.26-.44.38-.66l-.09.12c.84-1.52,1.63-3.07,2.33-4.66a59.2,59.2,0,0,0,3.61-15.6c.1-1.05.16-2.11.2-3.16a59.56,59.56,0,0,1-14.24,31.7A59.14,59.14,0,0,1,148.46,167h0q-1.22.8-2.46,1.53l-.74.44-.93.52c-.69.38-1.38.75-2.09,1.11a59.61,59.61,0,0,1-84.18-68.94,61,61,0,0,1,6.24-17A61.82,61.82,0,0,0,57.24,99Z" fill="#f88d2b"/>
      </g>
    </g>
    <g id="neu_Kopie_2_Kopie_3" data-name="neu Kopie 2 Kopie 3">
      <g>
        <circle cx="123.66" cy="120.56" r="69.17" transform="translate(-47.25 95.71) rotate(-36)" fill="none"/>
        <path d="M82.61,64.06A61.15,61.15,0,0,0,132.9,173.27c.85-.21,1.69-.45,2.53-.7l.75-.24c.62-.19,1.23-.39,1.85-.61l.73-.26c.76-.27,1.52-.56,2.26-.87l1-.44,1.23-.54.7-.32-.15.05c1.58-.74,3.12-1.53,4.63-2.4a59.35,59.35,0,0,0,12.09-10.5c.69-.79,1.37-1.61,2-2.44a60.46,60.46,0,0,1-9,7.8,59,59,0,0,1-37.17,10.86h0c-1,0-1.92-.11-2.88-.2l-.86-.08-1-.13c-.79-.09-1.57-.2-2.35-.33A59.61,59.61,0,0,1,81.72,66.67a61.16,61.16,0,0,1,15-10.05A61.45,61.45,0,0,0,82.61,64.06Z" fill="#efd830"/>
      </g>
    </g>
    <g id="neu_Kopie_Kopie_2" data-name="neu Kopie Kopie 2">
      <g>
        <circle cx="123.46" cy="120.63" r="69.17" fill="none"/>
        <path d="M123.46,50.79a61.14,61.14,0,0,0-61.9,61.15,61.14,61.14,0,0,0,18.28,43.62A61.37,61.37,0,0,0,100,168.7c.82.32,1.64.63,2.46.92l.75.25c.61.21,1.23.4,1.85.59l.75.23c.78.22,1.56.43,2.34.62l1.1.25,1.31.28.76.16-.15,0c1.71.32,3.43.59,5.15.77a59,59,0,0,0,16-1.39c1-.23,2.06-.5,3.07-.79a59.51,59.51,0,0,1-34.55-3.74A59.16,59.16,0,0,1,87,158.54h0c-.76-.6-1.49-1.23-2.22-1.86l-.65-.57-.77-.72q-.87-.81-1.71-1.65A59.61,59.61,0,0,1,121.21,52.38a61.43,61.43,0,0,1,18.06.69A61.13,61.13,0,0,0,123.46,50.79Z" fill="#7aba1e"/>
      </g>
    </g>
    <g id="neu_Kopie_12" data-name="neu Kopie 12">
      <g>
        <circle cx="123.46" cy="120.63" r="69.17" fill="none"/>
        <path d="M164.51,64.13A61.15,61.15,0,0,0,76.19,145.7c.46.74,1,1.47,1.45,2.19l.45.64c.38.53.76,1.05,1.15,1.57l.48.62c.49.64,1,1.26,1.52,1.88l.75.85.89,1,.52.57-.1-.12q1.78,1.9,3.72,3.65a59.19,59.19,0,0,0,13.72,8.26c1,.41,2,.8,3,1.16a59.16,59.16,0,0,1-32-38.1h0c-.25-.93-.48-1.87-.7-2.81-.06-.28-.13-.56-.18-.84s-.14-.69-.21-1c-.15-.77-.29-1.55-.41-2.33a59.6,59.6,0,0,1,91.57-58.76A60.65,60.65,0,0,1,176,75.27,61.33,61.33,0,0,0,164.51,64.13Z" fill="#009de2"/>
      </g>
    </g>
  </g>
  <g id="arrow_aura" data-name="arrow + aura">
    <path d="M114.2,129.22l7,19c.54,1.46,1.53,1.5,2.2.09l23-48.3c.67-1.41,0-2.06-1.39-1.45L96.58,119.24c-1.44.61-1.44,1.62,0,2.25Z" fill="#2d2252"/>
    <path d="M179.67,170.32l.75-1.09A74.84,74.84,0,0,1,61.59,78.58Q59.19,81.4,57,84.45a74.85,74.85,0,0,0,122.63,85.87Z" fill="#2d2252" fill-rule="evenodd"/>
  </g>
</svg>
