<?xml version="1.0" encoding="UTF-8" standalone="no"?>
<svg
   xmlns:dc="http://purl.org/dc/elements/1.1/"
   xmlns:cc="http://creativecommons.org/ns#"
   xmlns:rdf="http://www.w3.org/1999/02/22-rdf-syntax-ns#"
   xmlns:svg="http://www.w3.org/2000/svg"
   xmlns="http://www.w3.org/2000/svg"
   xmlns:sodipodi="http://sodipodi.sourceforge.net/DTD/sodipodi-0.dtd"
   xmlns:inkscape="http://www.inkscape.org/namespaces/inkscape"
   width="1000"
   height="1100"
   version="1.1"
   id="svg112"
   sodipodi:docname="shortcomingsApproaching.svg"
   inkscape:version="0.92.4 (5da689c313, 2019-01-14)">
  <metadata
     id="metadata116">
    <rdf:RDF>
      <cc:Work
         rdf:about="">
        <dc:format>image/svg+xml</dc:format>
        <dc:type
           rdf:resource="http://purl.org/dc/dcmitype/StillImage" />
        <dc:title></dc:title>
      </cc:Work>
    </rdf:RDF>
  </metadata>
  <sodipodi:namedview
     pagecolor="#ffffff"
     bordercolor="#666666"
     borderopacity="1"
     objecttolerance="10"
     gridtolerance="10"
     guidetolerance="10"
     inkscape:pageopacity="0"
     inkscape:pageshadow="2"
     inkscape:window-width="2560"
     inkscape:window-height="1377"
     id="namedview114"
     showgrid="false"
     inkscape:zoom="0.54909091"
     inkscape:cx="70.460088"
     inkscape:cy="483.05537"
     inkscape:window-x="1912"
     inkscape:window-y="-8"
     inkscape:window-maximized="1"
     inkscape:current-layer="g110" />
  <defs
     id="defs66">
    <clipPath
       id="EGXEKOJWuGVn">
      <path
         id="svg_1"
         d="m0,0l1673,0l0,1285l-1673,0l0,-1285z"
         fill="none" />
    </clipPath>
  </defs>
  <g
     id="g110">
    <title
       id="title68">Layer 1</title>
    <path
       style="fill:#ffd700;fill-opacity:0.2"
       inkscape:connector-curvature="0"
       d="m 460.74242,186.92776 c 0,75.84645 -61.4857,137.33215 -137.33215,137.33215 -75.84645,0 -137.33215,-61.4857 -137.33215,-137.33215 0,-75.84645 61.4857,-137.332153 137.33215,-137.332153 75.84645,0 137.33215,61.485703 137.33215,137.332153 z"
       id="svg_5"
       inkscape:export-xdpi="96"
       inkscape:export-ydpi="96" />
    <path
       style="fill:none;stroke:#ffd700;stroke-width:2.5;stroke-linecap:round;stroke-linejoin:round;stroke-miterlimit:10;stroke-opacity:0.69803999"
       inkscape:connector-curvature="0"
       d="m 460.74242,186.92776 c 0,75.84645 -61.4857,137.33215 -137.33215,137.33215 -75.84645,0 -137.33215,-61.4857 -137.33215,-137.33215 0,-75.84645 61.4857,-137.332153 137.33215,-137.332153 75.84645,0 137.33215,61.485703 137.33215,137.332153 z"
       stroke-miterlimit="10"
       id="svg_6"
       inkscape:export-xdpi="96"
       inkscape:export-ydpi="96" />
    <text
       style="font-style:normal;font-weight:normal;font-size:20px;font-family:geogebra-sans-serif, sans-serif;text-anchor:start;fill:#ffd700"
       font-size="20px"
       font-style="normal"
       font-weight="normal"
       x="229.62225"
       y="37.811882"
       id="svg_7"
       inkscape:export-xdpi="96"
       inkscape:export-ydpi="96">Destination Area</text>
    <text
       style="font-style:normal;font-weight:normal;font-size:20px;font-family:geogebra-sans-serif, sans-serif;text-anchor:start;fill:none;stroke:#ffffff;stroke-width:3;stroke-linejoin:bevel;stroke-miterlimit:10"
       font-size="20px"
       font-style="normal"
       font-weight="normal"
       x="229.62225"
       y="37.811882"
       stroke-miterlimit="10"
       id="svg_8"
       inkscape:export-xdpi="96"
       inkscape:export-ydpi="96">Destination Area</text>
    <text
       style="font-style:normal;font-weight:normal;font-size:20px;font-family:geogebra-sans-serif, sans-serif;text-anchor:start;fill:#ffd700;stroke:none;stroke-opacity:1;"
       font-size="20px"
       font-style="normal"
       font-weight="normal"
       x="229.62225"
       y="37.811882"
       id="svg_9"
       inkscape:export-xdpi="96"
       inkscape:export-ydpi="96">Destination Area</text>
    <path
       style="fill:none;stroke:#666666;stroke-width:0.5;stroke-linejoin:round;stroke-miterlimit:10;stroke-dasharray:8.5, 8;stroke-opacity:0.69803999"
       inkscape:connector-curvature="0"
       d="m 529.40849,873.5885 c 0,113.7697 -92.22855,205.9982 -205.99822,205.9982 -113.76968,0 -205.99822,-92.2285 -205.99822,-205.9982 0,-113.76967 92.22854,-205.99822 205.99822,-205.99822 113.76967,0 205.99822,92.22855 205.99822,205.99822 z"
       stroke-miterlimit="10"
       id="svg_10"
       inkscape:export-xdpi="96"
       inkscape:export-ydpi="96" />
    <path
       style="fill:none;stroke:#666666;stroke-width:0.5;stroke-linejoin:round;stroke-miterlimit:10;stroke-dasharray:8.5, 8;stroke-opacity:0.69803999"
       inkscape:connector-curvature="0"
       d="m 486.82048,688.91189 c 0,113.76968 -92.22854,205.99822 -205.99822,205.99822 -113.76968,0 -205.99822,-92.22854 -205.99822,-205.99822 0,-113.76968 92.22854,-205.99822 205.99822,-205.99822 113.76968,0 205.99822,92.22854 205.99822,205.99822 z"
       stroke-miterlimit="10"
       id="svg_11"
       inkscape:export-xdpi="96"
       inkscape:export-ydpi="96" />
    <path
       style="fill:none;stroke:#666666;stroke-width:0.5;stroke-linejoin:round;stroke-miterlimit:10;stroke-dasharray:8.5, 8;stroke-opacity:0.69803999"
       inkscape:connector-curvature="0"
       d="m 428.82048,511.91189 c 0,113.76968 -92.22854,205.99822 -205.99822,205.99822 -113.76968,0 -205.99822,-92.22854 -205.99822,-205.99822 0,-113.76968 92.22854,-205.99822 205.99822,-205.99822 113.76968,0 205.99822,92.22854 205.99822,205.99822 z"
       stroke-miterlimit="10"
       id="svg_12"
       inkscape:export-xdpi="96"
       inkscape:export-ydpi="96" />
    <path
       style="fill:none;stroke:#666666;stroke-width:0.5;stroke-linejoin:round;stroke-miterlimit:10;stroke-dasharray:8.5, 8;stroke-opacity:0.69803999"
       inkscape:connector-curvature="0"
       d="m 696.92801,775.58689 c 0,113.76968 -92.2286,205.99821 -205.99825,205.99821 -113.76968,0 -205.99822,-92.22853 -205.99822,-205.99821 0,-113.76968 92.22854,-205.99822 205.99822,-205.99822 113.76965,0 205.99825,92.22854 205.99825,205.99822 z"
       stroke-miterlimit="10"
       id="svg_13"
       inkscape:export-xdpi="96"
       inkscape:export-ydpi="96" />
    <path
       style="fill:none;stroke:#666666;stroke-width:0.5;stroke-linejoin:round;stroke-miterlimit:10;stroke-dasharray:8.5, 8;stroke-opacity:0.69803999"
       inkscape:connector-curvature="0"
       d="m 846.82051,657.91189 c 0,113.76968 -92.2286,205.99822 -205.9982,205.99822 -113.76973,0 -205.99827,-92.22854 -205.99827,-205.99822 0,-113.76968 92.22854,-205.99822 205.99827,-205.99822 113.7696,0 205.9982,92.22854 205.9982,205.99822 z"
       stroke-miterlimit="10"
       id="svg_14"
       inkscape:export-xdpi="96"
       inkscape:export-ydpi="96" />
    <path
       style="fill:none;stroke:#666666;stroke-width:0.5;stroke-linejoin:round;stroke-miterlimit:10;stroke-dasharray:8.5, 8;stroke-opacity:0.69803999"
       inkscape:connector-curvature="0"
       d="m 988.82051,527.91189 c 0,113.76968 -92.2286,205.99822 -205.9982,205.99822 -113.7697,0 -205.99827,-92.22854 -205.99827,-205.99822 0,-113.76968 92.22857,-205.99822 205.99827,-205.99822 113.7696,0 205.9982,92.22854 205.9982,205.99822 z"
       stroke-miterlimit="10"
       id="svg_15"
       inkscape:export-xdpi="96"
       inkscape:export-ydpi="96" />
    <path
       style="fill:none;stroke:#666666;stroke-width:0.5;stroke-linejoin:round;stroke-miterlimit:10;stroke-dasharray:8.5, 8;stroke-opacity:0.69803999"
       inkscape:connector-curvature="0"
       d="m 941.82051,347.91189 c 0,113.76968 -92.2286,205.99822 -205.9982,205.99822 -113.7697,0 -205.99827,-92.22854 -205.99827,-205.99822 0,-113.76968 92.22857,-205.99822 205.99827,-205.99822 113.7696,0 205.9982,92.22854 205.9982,205.99822 z"
       stroke-miterlimit="10"
       id="svg_16"
       inkscape:export-xdpi="96"
       inkscape:export-ydpi="96" />
    <path
       style="fill:none;stroke:#666666;stroke-width:0.5;stroke-linejoin:round;stroke-miterlimit:10;stroke-dasharray:8.5, 8;stroke-opacity:0.69803999"
       inkscape:connector-curvature="0"
       d="m 783.82051,235.91189 c 0,113.76968 -92.2286,205.99822 -205.99825,205.99822 -113.76968,0 -205.99822,-92.22854 -205.99822,-205.99822 0,-113.76968 92.22854,-205.998223 205.99822,-205.998223 113.76965,0 205.99825,92.228543 205.99825,205.998223 z"
       stroke-miterlimit="10"
       id="svg_17"
       inkscape:export-xdpi="96"
       inkscape:export-ydpi="96" />
    <path
       style="fill:#1565c0"
       inkscape:connector-curvature="0"
       d="m 332.41027,873.5885 c 0,4.97057 -4.02944,9 -9,9 -4.97056,0 -9,-4.02943 -9,-9 0,-4.97056 4.02944,-9 9,-9 4.97056,0 9,4.02944 9,9 z"
       id="svg_18"
       inkscape:export-xdpi="96"
       inkscape:export-ydpi="96" />
    <path
       style="fill:none;stroke:#000000;stroke-linecap:round;stroke-linejoin:round;stroke-miterlimit:10"
       inkscape:connector-curvature="0"
       d="m 332.41027,873.5885 c 0,4.97057 -4.02944,9 -9,9 -4.97056,0 -9,-4.02943 -9,-9 0,-4.97056 4.02944,-9 9,-9 4.97056,0 9,4.02944 9,9 z"
       stroke-miterlimit="10"
       id="svg_19"
       inkscape:export-xdpi="96"
       inkscape:export-ydpi="96" />
    <text
       style="font-style:normal;font-weight:normal;font-size:20px;font-family:geogebra-sans-serif, sans-serif;text-anchor:start;fill:#1565c0"
       font-size="20px"
       font-style="normal"
       font-weight="normal"
       x="293.62225"
       y="854.81189"
       id="svg_20"
       inkscape:export-xdpi="96"
       inkscape:export-ydpi="96">Sender</text>
    <text
       style="font-style:normal;font-weight:normal;font-size:20px;font-family:geogebra-sans-serif, sans-serif;text-anchor:start;fill:none;stroke:#ffffff;stroke-width:3;stroke-linejoin:bevel;stroke-miterlimit:10"
       font-size="20px"
       font-style="normal"
       font-weight="normal"
       x="293.62225"
       y="854.81189"
       stroke-miterlimit="10"
       id="svg_21"
       inkscape:export-xdpi="96"
       inkscape:export-ydpi="96">Sender</text>
    <text
       style="font-style:normal;font-weight:normal;font-size:20px;font-family:geogebra-sans-serif, sans-serif;text-anchor:start;fill:#1565c0;stroke:none;stroke-opacity:1;"
       font-size="20px"
       font-style="normal"
       font-weight="normal"
       x="293.62225"
       y="854.81189"
       id="svg_22"
       inkscape:export-xdpi="96"
       inkscape:export-ydpi="96">Sender</text>
    <path
       style="fill:#ffd700"
       inkscape:connector-curvature="0"
       d="m 649.82231,657.91189 c 0,4.97056 -4.0295,9 -9,9 -4.9706,0 -9,-4.02944 -9,-9 0,-4.97056 4.0294,-9 9,-9 4.9705,0 9,4.02944 9,9 z"
       id="svg_23"
       inkscape:export-xdpi="96"
       inkscape:export-ydpi="96" />
    <path
       style="fill:none;stroke:#000000;stroke-linecap:round;stroke-linejoin:round;stroke-miterlimit:10"
       inkscape:connector-curvature="0"
       d="m 649.82231,657.91189 c 0,4.97056 -4.0295,9 -9,9 -4.9706,0 -9,-4.02944 -9,-9 0,-4.97056 4.0294,-9 9,-9 4.9705,0 9,4.02944 9,9 z"
       stroke-miterlimit="10"
       id="svg_24"
       inkscape:export-xdpi="96"
       inkscape:export-ydpi="96" />
    <path
       style="fill:#ffd700"
       inkscape:connector-curvature="0"
       d="m 791.82231,527.91189 c 0,4.97056 -4.0295,9 -9,9 -4.9706,0 -9,-4.02944 -9,-9 0,-4.97056 4.0294,-9 9,-9 4.9705,0 9,4.02944 9,9 z"
       id="svg_25"
       inkscape:export-xdpi="96"
       inkscape:export-ydpi="96" />
    <path
       style="fill:none;stroke:#000000;stroke-linecap:round;stroke-linejoin:round;stroke-miterlimit:10"
       inkscape:connector-curvature="0"
       d="m 791.82231,527.91189 c 0,4.97056 -4.0295,9 -9,9 -4.9706,0 -9,-4.02944 -9,-9 0,-4.97056 4.0294,-9 9,-9 4.9705,0 9,4.02944 9,9 z"
       stroke-miterlimit="10"
       id="svg_26"
       inkscape:export-xdpi="96"
       inkscape:export-ydpi="96" />
    <path
       style="fill:#006633"
       inkscape:connector-curvature="0"
       d="m 289.82226,688.91189 c 0,4.97056 -4.02944,9 -9,9 -4.97056,0 -9,-4.02944 -9,-9 0,-4.97056 4.02944,-9 9,-9 4.97056,0 9,4.02944 9,9 z"
       id="svg_27"
       inkscape:export-xdpi="96"
       inkscape:export-ydpi="96" />
    <path
       style="fill:none;stroke:#000000;stroke-linecap:round;stroke-linejoin:round;stroke-miterlimit:10"
       inkscape:connector-curvature="0"
       d="m 289.82226,688.91189 c 0,4.97056 -4.02944,9 -9,9 -4.97056,0 -9,-4.02944 -9,-9 0,-4.97056 4.02944,-9 9,-9 4.97056,0 9,4.02944 9,9 z"
       stroke-miterlimit="10"
       id="svg_28"
       inkscape:export-xdpi="96"
       inkscape:export-ydpi="96" />
    <path
       style="fill:#993300"
       inkscape:connector-curvature="0"
       d="m 310.87082,296.76468 c 0,4.97056 -4.02944,9 -9,9 -4.97057,0 -9,-4.02944 -9,-9 0,-4.97056 4.02943,-9 9,-9 4.97056,0 9,4.02944 9,9 z"
       id="svg_29"
       inkscape:export-xdpi="96"
       inkscape:export-ydpi="96" />
    <path
       style="fill:none;stroke:#000000;stroke-linecap:round;stroke-linejoin:round;stroke-miterlimit:10"
       inkscape:connector-curvature="0"
       d="m 310.87082,296.76468 c 0,4.97056 -4.02944,9 -9,9 -4.97057,0 -9,-4.02944 -9,-9 0,-4.97056 4.02943,-9 9,-9 4.97056,0 9,4.02944 9,9 z"
       stroke-miterlimit="10"
       id="svg_30"
       inkscape:export-xdpi="96"
       inkscape:export-ydpi="96" />
    <path
       style="fill:#993300"
       inkscape:connector-curvature="0"
       d="m 415.68715,197.27798 c 0,4.97057 -4.02943,9 -9,9 -4.97056,0 -9,-4.02943 -9,-9 0,-4.97056 4.02944,-9 9,-9 4.97057,0 9,4.02944 9,9 z"
       id="svg_31"
       inkscape:export-xdpi="96"
       inkscape:export-ydpi="96" />
    <path
       style="fill:none;stroke:#000000;stroke-linecap:round;stroke-linejoin:round;stroke-miterlimit:10"
       inkscape:connector-curvature="0"
       d="m 415.68715,197.27798 c 0,4.97057 -4.02943,9 -9,9 -4.97056,0 -9,-4.02943 -9,-9 0,-4.97056 4.02944,-9 9,-9 4.97057,0 9,4.02944 9,9 z"
       stroke-miterlimit="10"
       id="svg_32"
       inkscape:export-xdpi="96"
       inkscape:export-ydpi="96" />
    <path
       style="fill:#993300"
       inkscape:connector-curvature="0"
       d="m 319.75356,156.41738 c 0,4.97056 -4.02944,9 -9,9 -4.97057,0 -9,-4.02944 -9,-9 0,-4.97056 4.02943,-9 9,-9 4.97056,0 9,4.02944 9,9 z"
       id="svg_33"
       inkscape:export-xdpi="96"
       inkscape:export-ydpi="96" />
    <path
       style="fill:none;stroke:#000000;stroke-linecap:round;stroke-linejoin:round;stroke-miterlimit:10"
       inkscape:connector-curvature="0"
       d="m 319.75356,156.41738 c 0,4.97056 -4.02944,9 -9,9 -4.97057,0 -9,-4.02944 -9,-9 0,-4.97056 4.02943,-9 9,-9 4.97056,0 9,4.02944 9,9 z"
       stroke-miterlimit="10"
       id="svg_34"
       inkscape:export-xdpi="96"
       inkscape:export-ydpi="96" />
    <path
       style="fill:#006400"
       inkscape:connector-curvature="0"
       d="m 231.82226,511.91189 c 0,4.97056 -4.02944,9 -9,9 -4.97056,0 -9,-4.02944 -9,-9 0,-4.97056 4.02944,-9 9,-9 4.97056,0 9,4.02944 9,9 z"
       id="svg_35"
       inkscape:export-xdpi="96"
       inkscape:export-ydpi="96" />
    <path
       style="fill:none;stroke:#000000;stroke-linecap:round;stroke-linejoin:round;stroke-miterlimit:10"
       inkscape:connector-curvature="0"
       d="m 231.82226,511.91189 c 0,4.97056 -4.02944,9 -9,9 -4.97056,0 -9,-4.02944 -9,-9 0,-4.97056 4.02944,-9 9,-9 4.97056,0 9,4.02944 9,9 z"
       stroke-miterlimit="10"
       id="svg_36"
       inkscape:export-xdpi="96"
       inkscape:export-ydpi="96" />
    <path
       style="fill:#ffd700"
       inkscape:connector-curvature="0"
       d="m 499.92976,775.58689 c 0,4.97056 -4.02944,9 -9,9 -4.97056,0 -9,-4.02944 -9,-9 0,-4.97056 4.02944,-9 9,-9 4.97056,0 9,4.02944 9,9 z"
       id="svg_37"
       inkscape:export-xdpi="96"
       inkscape:export-ydpi="96" />
    <path
       style="fill:none;stroke:#000000;stroke-linecap:round;stroke-linejoin:round;stroke-miterlimit:10"
       inkscape:connector-curvature="0"
       d="m 499.92976,775.58689 c 0,4.97056 -4.02944,9 -9,9 -4.97056,0 -9,-4.02944 -9,-9 0,-4.97056 4.02944,-9 9,-9 4.97056,0 9,4.02944 9,9 z"
       stroke-miterlimit="10"
       id="svg_38"
       inkscape:export-xdpi="96"
       inkscape:export-ydpi="96" />
    <path
       style="fill:#ffd700"
       inkscape:connector-curvature="0"
       d="m 744.82231,347.91189 c 0,4.97056 -4.0295,9 -9,9 -4.9706,0 -9,-4.02944 -9,-9 0,-4.97056 4.0294,-9 9,-9 4.9705,0 9,4.02944 9,9 z"
       id="svg_39"
       inkscape:export-xdpi="96"
       inkscape:export-ydpi="96" />
    <path
       style="fill:none;stroke:#000000;stroke-linecap:round;stroke-linejoin:round;stroke-miterlimit:10"
       inkscape:connector-curvature="0"
       d="m 744.82231,347.91189 c 0,4.97056 -4.0295,9 -9,9 -4.9706,0 -9,-4.02944 -9,-9 0,-4.97056 4.0294,-9 9,-9 4.9705,0 9,4.02944 9,9 z"
       stroke-miterlimit="10"
       id="svg_40"
       inkscape:export-xdpi="96"
       inkscape:export-ydpi="96" />
    <path
       style="fill:#ffd700"
       inkscape:connector-curvature="0"
       d="m 586.82226,235.91189 c 0,4.97056 -4.02944,9 -9,9 -4.97056,0 -9,-4.02944 -9,-9 0,-4.97056 4.02944,-9 9,-9 4.97056,0 9,4.02944 9,9 z"
       id="svg_41"
       inkscape:export-xdpi="96"
       inkscape:export-ydpi="96" />
    <path
       style="fill:none;stroke:#000000;stroke-linecap:round;stroke-linejoin:round;stroke-miterlimit:10"
       inkscape:connector-curvature="0"
       d="m 586.82226,235.91189 c 0,4.97056 -4.02944,9 -9,9 -4.97056,0 -9,-4.02944 -9,-9 0,-4.97056 4.02944,-9 9,-9 4.97056,0 9,4.02944 9,9 z"
       stroke-miterlimit="10"
       id="svg_42"
       inkscape:export-xdpi="96"
       inkscape:export-ydpi="96" />
  </g>
</svg>
