<svg id="positiv" xmlns="http://www.w3.org/2000/svg" viewBox="0 0 873.25 150.94">
  <g id="Eclipse_MOSAIC" data-name="Eclipse MOSAIC">
    <g id="Eclipse_MOSAIC-2" data-name="Eclipse MOSAIC">
      <g>
        <path d="M241.68,93.29a1,1,0,0,1,.66-.17H277c.39,0,.58.22.58.66v2.54a.63.63,0,0,1-.74.74H247a1.16,1.16,0,0,0-.65.12c-.11.08-.17.29-.17.62v22.79c0,.28.06.45.17.53a1.07,1.07,0,0,0,.65.13h23.13a.58.58,0,0,1,.65.65v2.63c0,.27-.05.45-.16.53a1,1,0,0,1-.58.12H247a1.07,1.07,0,0,0-.65.13c-.11.08-.17.28-.17.61v23.37c0,.33.06.53.17.62a1.16,1.16,0,0,0,.65.12h31.08a1,1,0,0,1,.57.12.65.65,0,0,1,.17.54v2.62a.58.58,0,0,1-.66.66H242.34a1,1,0,0,1-.66-.17,1.11,1.11,0,0,1-.16-.74V94A1.1,1.1,0,0,1,241.68,93.29Z" transform="translate(-43.5 -51.3)" fill="#2d2252"/>
        <path d="M320.2,94.56a23,23,0,0,1,7.83,6,15.15,15.15,0,0,1,3.61,8v.33c0,.16,0,.27-.13.32a.62.62,0,0,1-.37.08l-3.69.33h-.16c-.22,0-.36-.19-.41-.57a16.2,16.2,0,0,0-16.24-12.71q-9.75,0-14.84,7t-5.08,20.42q0,13.11,5.16,20t15.34,6.93a17.16,17.16,0,0,0,10.41-3q4.1-3,6.56-9.39c.06-.21.25-.3.58-.24l3.28.9c.21.11.3.36.24.74a21.17,21.17,0,0,1-7.91,10.86,22.24,22.24,0,0,1-13.49,4.23q-11.89,0-18.49-8.16t-6.6-22.92a43.59,43.59,0,0,1,2.95-16.89A23.54,23.54,0,0,1,297.24,96a23.17,23.17,0,0,1,13.24-3.73A22.24,22.24,0,0,1,320.2,94.56Z" transform="translate(-43.5 -51.3)" fill="#2d2252"/>
        <path d="M345.41,93.29a1,1,0,0,1,.62-.17h3.11a.8.8,0,0,1,.58.17,1.1,1.1,0,0,1,.16.73v55.27c0,.33.05.53.16.62a1.23,1.23,0,0,0,.66.12h29.44a1,1,0,0,1,.57.12.65.65,0,0,1,.17.54v2.62a.58.58,0,0,1-.66.66H346a.81.81,0,0,1-.66-.21,1.15,1.15,0,0,1-.16-.7V94C345.21,93.64,345.27,93.4,345.41,93.29Z" transform="translate(-43.5 -51.3)" fill="#2d2252"/>
        <path d="M397.31,93.12a.79.79,0,0,1,.57.17,1.08,1.08,0,0,1,.17.73V152.9A.85.85,0,0,1,397,154h-2.62a1.28,1.28,0,0,1-.78-.17c-.14-.11-.21-.35-.21-.74V94c0-.38.07-.62.21-.73a.94.94,0,0,1,.61-.17Z" transform="translate(-43.5 -51.3)" fill="#2d2252"/>
        <path d="M451.17,123.22q-5.79,4.26-15.62,4.26H420.79a.65.65,0,0,0-.74.74v24.93c0,.54-.25.82-.74.82h-3.2a.66.66,0,0,1-.74-.74V94a1.08,1.08,0,0,1,.17-.73.94.94,0,0,1,.65-.17H435q10.17,0,16.07,4.18t5.91,13Q457,118.95,451.17,123.22ZM447.6,100q-4.43-3-12.79-3H420.87c-.55,0-.82.24-.82.73v25c0,.55.22.82.65.82h14.68q8,0,12.3-3.28T452,110Q452,103.05,447.6,100Z" transform="translate(-43.5 -51.3)" fill="#2d2252"/>
        <path d="M488.27,96.32q-6.72,0-10.66,3.16a10.76,10.76,0,0,0-3.94,8.89q0,7.38,9.68,10.83l11.48,4.1q7.14,2.53,10.25,6.31a14,14,0,0,1,3.12,9.19q0,7.55-5.46,11.76t-15,4.23a27.29,27.29,0,0,1-12.1-2.51,22.23,22.23,0,0,1-8.65-7.66,1.44,1.44,0,0,1-.24-.66c0-.33.24-.65.73-1l1.4-1a1.55,1.55,0,0,1,1-.41,1.14,1.14,0,0,1,.74.41,25.11,25.11,0,0,0,7.26,6.73c2.43,1.36,5.7,2.05,9.8,2.05q7.46,0,11.64-2.79t4.18-8.86a9.52,9.52,0,0,0-2.17-6.35q-2.18-2.58-8.32-4.88l-12.39-4.67q-6.22-2.3-8.89-6.15a14.53,14.53,0,0,1-2.67-8.45q0-7.62,5.29-12t14.06-4.35a23.59,23.59,0,0,1,18.13,8,.94.94,0,0,1,.32.65.88.88,0,0,1-.32.57l-2.22,1.89a.64.64,0,0,1-.41.25c-.16,0-.41-.22-.74-.66A18.77,18.77,0,0,0,488.27,96.32Z" transform="translate(-43.5 -51.3)" fill="#2d2252"/>
        <path d="M521.5,93.29a.9.9,0,0,1,.65-.17h34.69q.57,0,.57.66v2.54a.79.79,0,0,1-.16.57.8.8,0,0,1-.58.17H526.83a1.23,1.23,0,0,0-.66.12c-.11.08-.16.29-.16.62v22.79c0,.28,0,.45.16.53a1.12,1.12,0,0,0,.66.13H550a.58.58,0,0,1,.66.65v2.63a.64.64,0,0,1-.17.53,1,1,0,0,1-.57.12h-23a1.12,1.12,0,0,0-.66.13c-.11.08-.16.28-.16.61v23.37c0,.33,0,.53.16.62a1.23,1.23,0,0,0,.66.12H557.9a1,1,0,0,1,.58.12c.11.08.16.26.16.54v2.62a.58.58,0,0,1-.65.66H522.15a.9.9,0,0,1-.65-.17,1.1,1.1,0,0,1-.17-.74V94A1.08,1.08,0,0,1,521.5,93.29Z" transform="translate(-43.5 -51.3)" fill="#2d2252"/>
      </g>
      <g>
        <path d="M588.31,152.65a2,2,0,0,1-.45-1.39V93.86c0-1,.46-1.56,1.39-1.56h17a2.59,2.59,0,0,1,1.31.25,1.7,1.7,0,0,1,.65,1l12.39,34.36q.24.66.57.66t.57-.66l11.81-33.7c.33-1.26.93-1.89,1.81-1.89H653c.82,0,1.23.49,1.23,1.48v57.4a2,2,0,0,1-.5,1.52,2.23,2.23,0,0,1-1.55.45H641.57a1.91,1.91,0,0,1-1.35-.37,1.75,1.75,0,0,1-.37-1.27V110.67c0-.38-.09-.57-.25-.57s-.33.22-.49.65l-14.35,41.09a1.68,1.68,0,0,1-1.72,1.31h-6.81a1.64,1.64,0,0,1-1.8-1.31l-14.19-40.51c-.16-.44-.33-.66-.49-.66s-.33.25-.33.74v40.26a1.75,1.75,0,0,1-.29,1.19,1.73,1.73,0,0,1-1.19.29h-8.36A1.63,1.63,0,0,1,588.31,152.65Z" transform="translate(-43.5 -51.3)" fill="#2d2252"/>
        <path d="M674,150.24a24.58,24.58,0,0,1-9.76-10.71,37.33,37.33,0,0,1-3.4-16.56,38.11,38.11,0,0,1,3.44-16.77,25.18,25.18,0,0,1,9.8-10.9A28.31,28.31,0,0,1,689,91.48a28,28,0,0,1,14.77,3.82,25.26,25.26,0,0,1,9.75,10.9A37.76,37.76,0,0,1,717,122.89a37.42,37.42,0,0,1-3.41,16.52,24.78,24.78,0,0,1-9.71,10.78A28.37,28.37,0,0,1,689,154,29.11,29.11,0,0,1,674,150.24ZM698.89,139Q702,134,702,123.05q0-11.23-3.16-16.4t-9.8-5.16q-6.79,0-10,5.16t-3.16,16.4q0,11,3.12,15.91t10,4.92Q695.81,143.88,698.89,139Z" transform="translate(-43.5 -51.3)" fill="#2d2252"/>
        <path d="M752.5,102.92a16.39,16.39,0,0,0-7.18-1.35c-3.33,0-5.88.6-7.63,1.8a5.53,5.53,0,0,0-2.62,4.76q0,4.26,6.64,6.23l13,3.69c4.86,1.37,8.49,3.53,10.86,6.48a16.45,16.45,0,0,1,3.57,10.66,16.9,16.9,0,0,1-3,10,18.81,18.81,0,0,1-8.49,6.52,33.77,33.77,0,0,1-13,2.3,38.64,38.64,0,0,1-15.08-2.83q-6.74-2.83-9.84-7.75a2.16,2.16,0,0,1-.33-1.07,2,2,0,0,1,.82-1.39l6.31-4.35a2.93,2.93,0,0,1,1.48-.49,1.49,1.49,0,0,1,1.23.66,19.61,19.61,0,0,0,6.15,5.57,17.76,17.76,0,0,0,8.28,1.64q5.49,0,8.61-1.72a5.56,5.56,0,0,0,3.12-5.17,5.14,5.14,0,0,0-1.56-3.77,12.84,12.84,0,0,0-5.25-2.7l-12.38-3.53a21.08,21.08,0,0,1-10.91-6.6,16.53,16.53,0,0,1-.94-20,19.61,19.61,0,0,1,8.24-6.6,29.51,29.51,0,0,1,12.3-2.42,33.18,33.18,0,0,1,12.63,2.34,20.58,20.58,0,0,1,8.77,6.27,2,2,0,0,1,.5,1.15,1.17,1.17,0,0,1-.5.9l-6.88,5.09a1.56,1.56,0,0,1-.74.32c-.28,0-.71-.3-1.32-.9A16,16,0,0,0,752.5,102.92Z" transform="translate(-43.5 -51.3)" fill="#2d2252"/>
        <path d="M770.4,151.75a2.27,2.27,0,0,1,.17-1L791,93.94a2.77,2.77,0,0,1,.78-1.27,2.11,2.11,0,0,1,1.35-.37h12.3a2.47,2.47,0,0,1,2.46,1.81l20.25,56.82a2.69,2.69,0,0,1,.17.74,1.85,1.85,0,0,1-.29,1.07,1,1,0,0,1-.86.41H815.09a1.46,1.46,0,0,1-1.55-1.15l-4.27-12a1.8,1.8,0,0,0-.37-.7.93.93,0,0,0-.69-.21h-20a1,1,0,0,0-1.07.82l-4.34,12.14a1.76,1.76,0,0,1-1.73,1.07h-9.43C770.81,153.15,770.4,152.68,770.4,151.75Zm34.44-23.53c.55,0,.82-.22.82-.66a2.36,2.36,0,0,0-.08-.74l-6.89-19.18c-.16-.33-.35-.5-.57-.5s-.33.2-.49.58l-7,19.1a2.69,2.69,0,0,0-.17.74c0,.44.3.66.91.66Z" transform="translate(-43.5 -51.3)" fill="#2d2252"/>
        <path d="M845.9,92.3c.87,0,1.31.49,1.31,1.48v57.4a2,2,0,0,1-.49,1.52,2.55,2.55,0,0,1-1.72.45H834.67a2,2,0,0,1-1.4-.41,1.83,1.83,0,0,1-.41-1.32V93.86c0-1,.44-1.56,1.31-1.56Z" transform="translate(-43.5 -51.3)" fill="#2d2252"/>
        <path d="M893,93.86a23.9,23.9,0,0,1,8.65,6.48,19.45,19.45,0,0,1,4.3,9.18,4.8,4.8,0,0,1,.17,1.32.72.72,0,0,1-.25.65,2,2,0,0,1-.74.25l-11.07.73a1.28,1.28,0,0,1-.94-.24,2.51,2.51,0,0,1-.37-1,13.22,13.22,0,0,0-3.61-7.13,9.91,9.91,0,0,0-7.21-2.62q-13.12,0-13.12,21,0,10.9,3.28,15.91t10,5a13.85,13.85,0,0,0,8.33-2.46q3.39-2.46,5.53-8a1,1,0,0,1,1.07-.57,2.76,2.76,0,0,1,.74.08l8,1.72c.77.28,1.07,1,.9,2a21.56,21.56,0,0,1-3.81,7.63A26,26,0,0,1,881.53,154a26.91,26.91,0,0,1-14.72-4,25.82,25.82,0,0,1-9.63-11.15,38.64,38.64,0,0,1-3.37-16.61,37.08,37.08,0,0,1,3.37-16.32,24.52,24.52,0,0,1,9.63-10.7,28.32,28.32,0,0,1,14.72-3.73A27.59,27.59,0,0,1,893,93.86Z" transform="translate(-43.5 -51.3)" fill="#2d2252"/>
      </g>
      <g transform="translate(857,29),scale(0.08)" >
        <circle cx="100" cy="100" r="88.5" fill="none" stroke="#2d2252" stroke-width="20" />
        <path fill="#2d2252" d="M94.6 92C100.1 92 104.1 90.9 106.5 88.8C108.9 86.8 110.2 83.4 110.2 78.6C110.2 73.9 108.9 70.6 106.5 68.5C104.1 66.5 100.1 65.5 94.6 65.5L83.4 65.5L83.4 92L94.6 92M83.4 110.3L83.4 149.3L56.8 149.3L56.8 46.2L97.4 46.2C111 46.2 120.9 48.5 127.2 53.1C133.6 57.6 136.7 64.8 136.7 74.7C136.7 81.5 135.1 87.1 131.8 91.5C128.5 95.8 123.6 99.1 116.9 101.1C120.6 102 123.8 103.9 126.7 106.8C129.6 109.7 132.5 114.1 135.4 120.1L149.9 149.3L121.6 149.3L109 123.7C106.5 118.6 103.9 115 101.3 113.2C98.7 111.3 95.2 110.3 90.9 110.3L83.4 110.3"/>
      </g> 
    </g>
    <g id="Medaillion_5" data-name="Medaillion 5">
      <g id="neu_Kopie_8_Kopie_2_Kopie" data-name="neu Kopie 8 Kopie 2 Kopie">
        <path d="M113.06,180.75" transform="translate(-43.5 -51.3)" fill="#68145c"/>
        <g>
          <circle cx="79.96" cy="69.32" r="69.17" fill="none"/>
          <path d="M189.88,142.21a61.14,61.14,0,0,0-39-77.77,61.16,61.16,0,0,0-47.14,3.9A61.41,61.41,0,0,0,85,83.41c-.56.67-1.1,1.36-1.63,2.06l-.48.63c-.38.52-.76,1.05-1.13,1.58l-.45.64c-.45.67-.89,1.35-1.31,2-.2.32-.39.65-.58,1l-.67,1.16c-.13.23-.27.44-.39.67l.09-.13c-.84,1.53-1.62,3.08-2.33,4.67a59.13,59.13,0,0,0-3.61,15.59c-.1,1.06-.16,2.11-.2,3.17A60.42,60.42,0,0,1,75,104.87,59,59,0,0,1,98.67,74.24h0c.8-.53,1.63-1,2.45-1.54l.74-.43.93-.52c.69-.38,1.39-.76,2.09-1.11a59.6,59.6,0,0,1,84.18,68.93,61,61,0,0,1-6.24,17A61.23,61.23,0,0,0,189.88,142.21Z" transform="translate(-43.5 -51.3)" fill="#7aba1e"/>
        </g>
      </g>
      <g id="neu_Kopie_6_Kopie_2_Kopie" data-name="neu Kopie 6 Kopie 2 Kopie">
        <path d="M63.06,129.31" transform="translate(-43.5 -51.3)" fill="#68145c"/>
        <g>
          <circle cx="79.96" cy="69.32" r="69.17" fill="none"/>
          <path d="M123.46,190.46A61.13,61.13,0,0,0,180.61,153a61.29,61.29,0,0,0,0-47.34A61.09,61.09,0,0,0,147,72.55c-.81-.32-1.63-.62-2.46-.91l-.74-.26c-.62-.21-1.24-.4-1.86-.59l-.75-.23c-.77-.22-1.55-.43-2.34-.62l-1.1-.25-1.31-.28-.75-.16.15,0c-1.71-.32-3.43-.59-5.16-.77a59,59,0,0,0-16,1.39c-1,.23-2,.5-3.07.79a59.46,59.46,0,0,1,34.56,3.75,59,59,0,0,1,13.73,8.26h0c.75.6,1.49,1.23,2.21,1.86l.65.57.78.72c.57.54,1.15,1.09,1.7,1.65a59.61,59.61,0,0,1-39.55,101.36,61.44,61.44,0,0,1-18.06-.69A61.19,61.19,0,0,0,123.46,190.46Z" transform="translate(-43.5 -51.3)" fill="#efd830"/>
        </g>
      </g>
      <g id="neu_Kopie_4_Kopie_2_Kopie" data-name="neu Kopie 4 Kopie 2 Kopie">
        <path d="M96.5,65.73" transform="translate(-43.5 -51.3)" fill="#68145c"/>
        <g>
          <circle cx="123.42" cy="120.49" r="69.17" transform="translate(-92.55 71.26) rotate(-45)" fill="none"/>
          <path d="M57,142.07A61.14,61.14,0,0,0,176.4,128c.06-.87.1-1.74.12-2.62,0-.26,0-.52,0-.79,0-.65,0-1.29,0-1.94,0-.26,0-.52,0-.79,0-.8-.07-1.61-.13-2.41,0-.38-.07-.75-.1-1.13s-.09-.89-.14-1.33c0-.25,0-.51-.08-.77v.16q-.31-2.59-.85-5.14A59.48,59.48,0,0,0,169,96.49c-.54-.91-1.11-1.8-1.7-2.68a60.44,60.44,0,0,1,4.65,10.93,59.15,59.15,0,0,1-1.15,38.7h0c-.34.91-.71,1.8-1.09,2.69-.12.26-.22.53-.34.79l-.45,1c-.33.72-.67,1.43-1,2.13a59.63,59.63,0,0,1-79.5,25.83A60.14,60.14,0,0,1,70,161.73a59.46,59.46,0,0,1-10.8-18,61.07,61.07,0,0,1-4.92-17.39A61.55,61.55,0,0,0,57,142.07Z" transform="translate(-43.5 -51.3)" fill="#f88d2b"/>
        </g>
      </g>
      <g id="neu_Kopie_2_Kopie_2_Kopie" data-name="neu Kopie 2 Kopie 2 Kopie">
        <path d="M167.42,78" transform="translate(-43.5 -51.3)" fill="#68145c"/>
        <g>
          <circle cx="123.66" cy="120.56" r="69.17" transform="translate(-90.75 44.41) rotate(-36)" fill="none"/>
          <path d="M82.61,64.06A61.15,61.15,0,0,0,132.9,173.27c.85-.21,1.69-.45,2.53-.7l.75-.24c.62-.19,1.23-.39,1.85-.61l.73-.26c.76-.27,1.52-.56,2.26-.87l1-.44,1.23-.54.7-.32-.15.05c1.58-.74,3.12-1.53,4.63-2.4a59.35,59.35,0,0,0,12.09-10.5c.69-.79,1.37-1.61,2-2.44a60.46,60.46,0,0,1-9,7.8,59,59,0,0,1-37.17,10.86h0c-1,0-1.92-.11-2.88-.2l-.86-.08-1-.13c-.79-.09-1.57-.2-2.35-.33A59.61,59.61,0,0,1,81.72,66.67a61.16,61.16,0,0,1,15-10.05A61.45,61.45,0,0,0,82.61,64.06Z" transform="translate(-43.5 -51.3)" fill="#68145c"/>
        </g>
      </g>
      <g id="neu_Kopie_11_Kopie" data-name="neu Kopie 11 Kopie">
        <path d="M177.43,149.1" transform="translate(-43.5 -51.3)" fill="#68145c"/>
        <g>
          <circle cx="79.96" cy="69.32" r="69.17" fill="none"/>
          <path d="M164.51,64.13A61.15,61.15,0,0,0,76.19,145.7c.46.74,1,1.47,1.45,2.19l.45.64c.38.53.76,1.05,1.15,1.57l.48.62c.49.64,1,1.26,1.52,1.88l.75.85.89,1,.52.57-.1-.12q1.78,1.9,3.72,3.65a59.19,59.19,0,0,0,13.72,8.26c1,.41,2,.8,3,1.16a59.16,59.16,0,0,1-32-38.1h0c-.25-.93-.48-1.87-.7-2.81-.06-.28-.13-.56-.18-.84s-.14-.69-.21-1c-.15-.77-.29-1.55-.41-2.33a59.6,59.6,0,0,1,91.57-58.76A60.65,60.65,0,0,1,176,75.27,61.33,61.33,0,0,0,164.51,64.13Z" transform="translate(-43.5 -51.3)" fill="#009de2"/>
        </g>
      </g>
    </g>
  </g>
  <g id="arrow_aura" data-name="arrow + aura">
    <path d="M114.2,129.22l7,19c.54,1.46,1.53,1.5,2.2.09l23-48.3c.67-1.41,0-2.06-1.39-1.45L96.58,119.24c-1.44.61-1.44,1.62,0,2.25Z" transform="translate(-43.5 -51.3)" fill="#2d2252"/>
    <path d="M179.67,170.32l.75-1.09A74.84,74.84,0,0,1,61.59,78.58Q59.19,81.4,57,84.45a74.85,74.85,0,0,0,122.63,85.87Z" transform="translate(-43.5 -51.3)" fill="#2d2252" fill-rule="evenodd"/>
  </g>
</svg>
