<?xml version="1.0" encoding="UTF-8"?><svg id="a" xmlns="http://www.w3.org/2000/svg" width="660" height="210" viewBox="0 0 660 210"><defs><style>.c{fill:#00247e;}</style></defs><g id="b"><g><path class="c" d="M38.26,23.55h-12.47V115.3h12.47v3.41H14.83V20.14h23.43v3.41Z"/><path class="c" d="M90.03,86.17v22.65h-6.82v-22.65h6.82Z"/><path class="c" d="M160.13,91.37v3.02c-4.66,.52-7.77,.95-9.34,1.29-2.31,.45-5.61,1.3-9.9,2.57-1.01-2.91-1.66-5.29-1.96-7.16-1.16,1.83-2.27,3.24-3.35,4.25-2.61,2.42-6,3.63-10.18,3.63-6.86,0-12.49-2.61-16.88-7.83-4.66-5.48-6.99-12.36-6.99-20.63s2.27-14.83,6.82-20.35c4.21-5.14,9.62-7.71,16.21-7.71,3.17,0,5.89,.63,8.16,1.9,1.19,.67,2.59,1.81,4.19,3.41v-14.54c-.04-3.84-.43-6.15-1.17-6.93-.89-.86-3.19-1.27-6.88-1.23v-3.02c7.6-.56,15.1-1.9,22.48-4.03V83.93c.07,3.36,.54,5.41,1.4,6.15,.97,.86,3.43,1.29,7.38,1.29Zm-33.88-45.74c-3.88,0-6.54,2.31-8,6.93-1.31,4.18-1.96,10.05-1.96,17.61s.6,13.14,1.79,17.5c.71,2.54,1.85,4.52,3.41,5.96,1.57,1.44,3.39,2.15,5.48,2.15,1.83,0,3.47-.63,4.92-1.9,1.45-1.27,2.5-3,3.13-5.2,1.38-4.66,2.07-10.72,2.07-18.17s-.67-13.47-2.01-17.72c-1.53-4.77-4.47-7.16-8.83-7.16Z"/><path class="c" d="M187.27,40.21v46.41c0,3.09,.5,5.03,1.51,5.82,.89,.63,3.13,1.03,6.71,1.17v3.24c-6.26-.48-11.43-.73-15.49-.73s-9.13,.24-15.43,.73v-3.24c3.58-.15,5.81-.54,6.71-1.17,1.01-.78,1.51-2.72,1.51-5.82v-31.25c0-2.27-.08-3.89-.25-4.84-.17-.95-.48-1.65-.92-2.1-.9-.82-3.19-1.23-6.88-1.23v-2.96c7.68-.6,15.19-1.94,22.53-4.03Zm-7.77-22.81c2.2,0,4.08,.86,5.65,2.57,1.57,1.71,2.35,3.8,2.35,6.26s-.76,4.58-2.29,6.26c-1.53,1.68-3.43,2.52-5.7,2.52s-4.19-.86-5.76-2.57c-1.57-1.71-2.35-3.8-2.35-6.26s.76-4.59,2.29-6.26c1.49-1.68,3.43-2.52,5.81-2.52Z"/><path class="c" d="M210.42,59.77l-8.95-16.61h17.95l-9,16.61Zm0,20.08l9,16.61h-17.95l8.95-16.61Z"/><path class="c" d="M234.57,98.41v-20.69h3.35c.41,3.06,1.1,5.67,2.07,7.83,1.08,2.46,2.66,4.41,4.75,5.84,2.09,1.43,4.38,2.15,6.88,2.15,2.8,0,5.16-.88,7.1-2.63,1.9-1.71,2.85-3.75,2.85-6.09s-1.19-4.45-3.58-6.21c-1.38-.97-4.12-2.59-8.22-4.86-6.45-3.54-10.46-6.21-12.02-8-2.2-2.5-3.3-5.57-3.3-9.23,0-4.73,1.81-8.48,5.42-11.24,3.69-2.76,8.22-4.14,13.59-4.14,4.77,0,9.06,1.51,12.86,4.53l2.8-6.04h2.18v19.01h-3.35c-.41-2.98-1.04-5.4-1.9-7.27-1.86-4.03-5.2-6.04-10.01-6.04-2.8,0-5.18,.82-7.16,2.46-1.79,1.49-2.68,3.26-2.68,5.31,0,1.83,.86,3.45,2.57,4.86,.89,.75,2.81,1.86,5.76,3.35,4.88,2.46,8.44,4.42,10.68,5.87,2.76,1.75,4.7,3.3,5.81,4.64,1.9,2.2,2.85,5.11,2.85,8.72,0,4.88-1.77,8.96-5.31,12.25-3.54,3.24-8.24,4.86-14.09,4.86-4.4,0-8.2-1.08-11.41-3.24-.89-.56-1.96-1.38-3.19-2.46l-3.13,6.43h-2.18Z"/><path class="c" d="M293.24,87.92V50.04c0-1.91-.28-3.21-.84-3.91-.67-.89-2.24-1.44-4.7-1.65-1.31-.11-2.68-.17-4.14-.2v-3.06c6.52,.4,12.26,.6,17.22,.6s10.7-.2,17.22-.6v3.06c-3.28,.05-5.57,.27-6.88,.64-1.38,.4-2.22,1.19-2.52,2.38-.19,.59-.28,1.5-.28,2.74v37.88c.04,1.91,.32,3.21,.84,3.9,.67,.89,2.24,1.44,4.7,1.65,1.19,.11,2.57,.17,4.14,.2v3.06c-6.6-.4-12.34-.6-17.22-.6s-10.62,.2-17.22,.6v-3.06c3.32-.08,5.61-.29,6.88-.64,1.34-.43,2.18-1.22,2.52-2.38,.19-.62,.28-1.53,.28-2.74Z"/><path class="c" d="M407.24,93.05v3.3c-3.17,.82-6,1.23-8.5,1.23-3.84,0-6.73-1.1-8.67-3.3-1.34-1.53-2.22-3.84-2.63-6.93-3.5,6.9-8.74,10.34-15.71,10.34-4.58,0-8.41-1.25-11.46-3.75-3.39-2.76-5.09-6.45-5.09-11.07,0-10.59,10.18-17.26,30.53-20.02v-7.72c0-3.39-.47-5.78-1.4-7.16-1.45-2.16-3.78-3.24-6.99-3.24-2.01,0-3.82,.48-5.42,1.45-1.57,.93-2.35,2.09-2.35,3.47,0,.45,.06,.95,.17,1.51,.3,1.68,.45,2.85,.45,3.52,0,3.99-1.99,5.98-5.98,5.98-3.58,0-5.37-1.77-5.37-5.31,0-3.8,1.86-7.06,5.59-9.78,3.99-2.94,8.96-4.42,14.93-4.42,8.16,0,14.05,2.48,17.67,7.44,1.53,2.16,2.5,5.33,2.91,9.5,.19,1.83,.28,4.46,.28,7.88v19.79c0,2.61,.17,4.47,.5,5.59,.45,1.49,1.58,2.24,3.41,2.24,.82,0,1.86-.19,3.13-.56Zm-21.53-27.01c-4.36,.86-7.66,1.9-9.9,3.13-4.1,2.27-6.15,6.17-6.15,11.68,0,3.24,.65,5.8,1.96,7.66,1.34,1.98,3.26,2.96,5.76,2.96,1.83,0,3.41-.53,4.75-1.59s2.27-2.54,2.8-4.45c.52-1.71,.78-4.53,.78-8.44v-10.96Z"/><path class="c" d="M422.81,87.92V50.04c0-1.91-.28-3.21-.84-3.91-.67-.89-2.24-1.44-4.7-1.65-1.31-.11-2.68-.17-4.14-.2v-3.06c6.52,.4,12.26,.6,17.22,.6s10.7-.2,17.22-.6v3.06c-3.28,.05-5.57,.27-6.88,.64-1.38,.4-2.22,1.19-2.52,2.38-.19,.59-.28,1.5-.28,2.74v37.88c.04,1.91,.32,3.21,.84,3.9,.67,.89,2.24,1.44,4.7,1.65,1.19,.11,2.57,.17,4.14,.2v3.06c-6.6-.4-12.34-.6-17.22-.6s-10.62,.2-17.22,.6v-3.06c3.32-.08,5.61-.29,6.88-.64,1.34-.43,2.18-1.22,2.52-2.38,.19-.62,.28-1.53,.28-2.74Z"/><path class="c" d="M465.35,33.03v22.65h-6.82v-22.65h6.82Z"/><path class="c" d="M510.46,88.41v4.64c-1.71,1.08-3.17,1.9-4.36,2.46-2.72,1.3-5.7,1.96-8.95,1.96-5,0-8.75-1.33-11.27-4s-3.77-6.64-3.77-11.94v-1.45l.78-33.27h-6.71v-4.25c4.43-.11,8.12-1.71,11.07-4.81,2.87-3.09,4.86-7.19,5.98-12.3h4.42l-.28,16.94h11.52v4.42h-11.57l-.22,33.88c-.04,2.68,.09,4.96,.39,6.82,.26,1.53,.99,2.7,2.18,3.52,.82,.6,1.83,.9,3.02,.9,2.46,0,5.05-1.17,7.77-3.52Z"/><path class="c" d="M538.45,40.21v46.41c0,3.09,.5,5.03,1.51,5.82,.9,.63,3.13,1.03,6.71,1.17v3.24c-6.26-.48-11.42-.73-15.49-.73s-9.13,.24-15.43,.73v-3.24c3.58-.15,5.81-.54,6.71-1.17,1.01-.78,1.51-2.72,1.51-5.82v-31.25c0-2.27-.08-3.89-.25-4.84-.17-.95-.47-1.65-.92-2.1-.89-.82-3.19-1.23-6.88-1.23v-2.96c7.68-.6,15.19-1.94,22.53-4.03Zm-7.77-22.81c2.2,0,4.08,.86,5.65,2.57,1.57,1.71,2.35,3.8,2.35,6.26s-.76,4.58-2.29,6.26c-1.53,1.68-3.43,2.52-5.7,2.52s-4.19-.86-5.76-2.57c-1.57-1.71-2.35-3.8-2.35-6.26s.76-4.59,2.29-6.26c1.49-1.68,3.43-2.52,5.81-2.52Z"/><path class="c" d="M561.59,59.77l-8.95-16.61h17.95l-9,16.61Zm0,20.08l9,16.61h-17.95l8.95-16.61Z"/><path class="c" d="M619.96,115.3h12.47V23.55h-12.47v-3.41h23.43V118.71h-23.43v-3.41Z"/></g><g><path class="c" d="M17.6,164.33h4.77c1.91,0,3.47,.1,4.69,.29,2.51,.41,4.53,1.63,6.05,3.66,1.68,2.27,2.51,5.03,2.51,8.28s-.86,6.16-2.57,8.44c-1.55,2.08-3.66,3.29-6.34,3.63-1.09,.14-2.7,.22-4.84,.22h-4.27v-24.51Zm3.63,21.24h1.89c1.41,0,2.51-.07,3.29-.2,1.78-.32,3.12-1.26,4.01-2.8,.95-1.64,1.43-3.65,1.43-6.03s-.53-4.49-1.58-6.1c-.95-1.47-2.31-2.36-4.06-2.66-.79-.13-2.11-.2-3.96-.2h-1.02v17.99Z"/><path class="c" d="M41.74,176.3h-3.34c.18-1.63,.75-2.86,1.69-3.7,1.22-1.08,2.93-1.62,5.13-1.62,1.88,0,3.36,.42,4.44,1.26,.85,.66,1.36,1.71,1.53,3.14,.07,.57,.1,1.39,.1,2.44v6.8c-.01,1.99,.16,3.39,.52,4.2h-3.2c-.17-.67-.27-1.39-.29-2.15-.91,1.7-2.5,2.55-4.79,2.55-1.6,0-2.91-.38-3.93-1.13-1.19-.9-1.79-2.18-1.79-3.84,0-2.49,1.28-4.24,3.84-5.24,1.22-.48,3.31-.99,6.29-1.53v-.48c0-1.02-.16-1.74-.48-2.15-.48-.62-1.3-.93-2.45-.93-1.89,0-2.99,.8-3.27,2.39Zm6.2,3.68c-2.43,.38-4.08,.83-4.94,1.33-1.09,.63-1.64,1.48-1.64,2.53,0,.71,.25,1.3,.74,1.78,.53,.5,1.23,.75,2.12,.75,1.52,0,2.59-.61,3.22-1.83,.33-.63,.5-1.71,.5-3.21v-1.35Z"/><path class="c" d="M57.19,163.92c.59,0,1.07,.19,1.46,.56,.44,.42,.65,1,.65,1.74,0,.67-.2,1.21-.59,1.62-.41,.43-.95,.65-1.6,.65s-1.18-.21-1.58-.63c-.4-.41-.6-.94-.6-1.6,0-.74,.22-1.32,.67-1.74,.42-.39,.95-.59,1.58-.59Zm-1.84,7.47h3.53v17.45h-3.53v-17.45Z"/><path class="c" d="M62.56,171.38h3.38c.21,.62,.32,1.41,.33,2.35,1.16-1.83,2.82-2.75,4.98-2.75s3.8,.97,4.72,2.91c1.29-1.94,3.05-2.91,5.3-2.91s3.74,.81,4.53,2.42c.31,.66,.5,1.52,.57,2.58,.01,.24,.02,1.05,.02,2.42v10.41h-3.46v-10.36c0-1.53-.14-2.55-.43-3.07-.47-.81-1.31-1.22-2.53-1.22-2.37,0-3.55,1.53-3.55,4.58v10.07h-3.46v-9.98c0-1.71-.11-2.8-.34-3.27-.45-.93-1.3-1.4-2.57-1.4-.9,0-1.67,.26-2.31,.79-.85,.68-1.27,2-1.27,3.95v9.91h-3.46v-12.73c0-1.57-.03-2.64-.1-3.23-.06-.51-.17-1.01-.33-1.49Z"/><path class="c" d="M90.39,164.18h3.53v24.65h-3.53v-24.65Z"/><path class="c" d="M111.83,180.9h-11.44c.06,1.52,.37,2.73,.93,3.63,.77,1.22,1.93,1.83,3.5,1.83,1.64,0,2.82-.77,3.55-2.3l3.12,.23c-.36,1.25-.93,2.27-1.72,3.09-1.25,1.29-2.93,1.94-5.03,1.94-1.95,0-3.61-.57-4.96-1.72-1.92-1.64-2.88-4.06-2.88-7.25,0-2.21,.44-4.12,1.33-5.71,.77-1.39,1.83-2.4,3.17-3.03,.98-.47,2.04-.7,3.2-.7,2.37,0,4.21,.95,5.55,2.84,1.14,1.62,1.71,3.72,1.71,6.3,0,.19,0,.48-.02,.86Zm-3.53-2.69c-.33-2.94-1.59-4.42-3.77-4.42s-3.48,1.47-4.03,4.42h7.8Z"/><path class="c" d="M114.6,171.38h3.31c.17,.89,.26,1.79,.26,2.71,0,.23-.01,.56-.03,.99,1.21-2.73,2.73-4.09,4.56-4.09,.47,0,1.03,.12,1.67,.36v3.64c-.9-.51-1.71-.77-2.45-.77-1.37,0-2.37,.79-3.01,2.37-.4,.98-.6,2.41-.6,4.27v7.97h-3.48v-11.78c-.01-2.76-.09-4.66-.22-5.67Z"/><path class="c" d="M151.46,171.74h-3.22c-.57-3.04-2.19-4.56-4.86-4.56-1.86,0-3.34,.8-4.43,2.41-1.18,1.75-1.77,4.09-1.77,7.02s.61,5.31,1.84,7.07c1.07,1.53,2.54,2.3,4.43,2.3,3.01,0,4.69-1.96,5.05-5.89h3.31c-.13,2.2-.58,4-1.36,5.39-1.42,2.54-3.71,3.81-6.87,3.81-2.84,0-5.17-.98-6.99-2.94-2.15-2.3-3.22-5.53-3.22-9.7,0-4.51,1.2-7.92,3.6-10.22,1.78-1.7,3.93-2.55,6.46-2.55,1.58,0,3.01,.36,4.27,1.08,2.23,1.26,3.48,3.52,3.77,6.79Z"/><path class="c" d="M168.44,180.9h-11.44c.06,1.52,.37,2.73,.93,3.63,.77,1.22,1.93,1.83,3.5,1.83,1.64,0,2.82-.77,3.55-2.3l3.12,.23c-.36,1.25-.93,2.27-1.72,3.09-1.25,1.29-2.93,1.94-5.03,1.94-1.95,0-3.61-.57-4.96-1.72-1.92-1.64-2.88-4.06-2.88-7.25,0-2.21,.44-4.12,1.33-5.71,.77-1.39,1.83-2.4,3.17-3.03,.98-.47,2.04-.7,3.2-.7,2.37,0,4.21,.95,5.55,2.84,1.14,1.62,1.71,3.72,1.71,6.3,0,.19,0,.48-.02,.86Zm-3.53-2.69c-.33-2.94-1.59-4.42-3.77-4.42s-3.48,1.47-4.03,4.42h7.8Z"/><path class="c" d="M170.96,171.38h3.34c.22,.61,.33,1.4,.34,2.37,1.19-1.84,2.88-2.76,5.05-2.76,1.31,0,2.43,.34,3.38,1.02,1.13,.84,1.78,2.05,1.96,3.64,.07,.59,.1,1.63,.1,3.12v10.05h-3.46v-9.44c0-1.8-.14-3-.41-3.63-.47-1.05-1.34-1.58-2.6-1.58-1.44,0-2.5,.63-3.19,1.9-.4,.73-.6,1.87-.6,3.43v9.32h-3.46v-11.35c0-2.2-.03-3.64-.1-4.33-.05-.43-.16-1.02-.34-1.78Z"/><path class="c" d="M193.59,171.38h3.69l-.05,2.85h-3.69l-.12,7.72c-.01,.48-.02,.96-.02,1.45,0,1.05,.11,1.73,.34,2.03,.31,.38,.78,.58,1.41,.58,.77,0,1.6-.19,2.5-.58l-.05,3.05c-1.16,.47-2.29,.7-3.39,.7-1.8,0-3.07-.62-3.79-1.87-.39-.66-.59-1.69-.59-3.09,0-.42,.02-1.18,.05-2.28l.21-7.72h-2.57l.05-2.85h2.62l.12-5.03h3.36l-.09,5.03Z"/><path class="c" d="M213.71,180.9h-11.44c.06,1.52,.37,2.73,.93,3.63,.77,1.22,1.93,1.83,3.5,1.83,1.64,0,2.82-.77,3.55-2.3l3.12,.23c-.36,1.25-.93,2.27-1.72,3.09-1.25,1.29-2.93,1.94-5.03,1.94-1.95,0-3.61-.57-4.96-1.72-1.92-1.64-2.88-4.06-2.88-7.25,0-2.21,.44-4.12,1.33-5.71,.77-1.39,1.83-2.4,3.17-3.03,.98-.47,2.04-.7,3.2-.7,2.37,0,4.21,.95,5.55,2.84,1.14,1.62,1.71,3.72,1.71,6.3,0,.19,0,.48-.02,.86Zm-3.53-2.69c-.33-2.94-1.59-4.42-3.77-4.42s-3.48,1.47-4.03,4.42h7.8Z"/><path class="c" d="M216.48,171.38h3.31c.17,.89,.26,1.79,.26,2.71,0,.23-.01,.56-.03,.99,1.21-2.73,2.73-4.09,4.56-4.09,.47,0,1.03,.12,1.67,.36v3.64c-.9-.51-1.71-.77-2.45-.77-1.37,0-2.37,.79-3.01,2.37-.4,.98-.6,2.41-.6,4.27v7.97h-3.48v-11.78c-.01-2.76-.09-4.66-.22-5.67Z"/><path class="c" d="M240.07,171.38h4.05v2.85h-4.01v14.6h-3.53v-14.6h-2.29v-2.85h2.29v-1.09c0-2.15,.27-3.67,.81-4.56,.84-1.36,2.18-2.05,4.03-2.05,1.02,0,2.12,.23,3.29,.7v3.05c-1.1-.41-1.99-.61-2.67-.61-.91,0-1.5,.43-1.77,1.29-.13,.41-.19,1.23-.19,2.48v.79Z"/><path class="c" d="M252.5,170.9c1.99,0,3.7,.72,5.13,2.15,.82,.8,1.44,1.78,1.86,2.94,.49,1.3,.74,2.68,.74,4.13,0,2.05-.44,3.85-1.33,5.4-.79,1.38-1.88,2.39-3.27,3.05-1.02,.49-2.1,.74-3.22,.74-2.04,0-3.78-.71-5.22-2.14-.82-.8-1.44-1.78-1.86-2.93-.49-1.3-.74-2.67-.74-4.11,0-2.06,.44-3.87,1.33-5.42,.79-1.39,1.88-2.42,3.27-3.09,1.02-.49,2.12-.74,3.31-.74Zm-.14,2.94c-1.21,0-2.18,.53-2.93,1.6-.86,1.21-1.29,2.77-1.29,4.69s.43,3.44,1.29,4.65c.75,1.05,1.74,1.58,2.98,1.58s2.24-.53,2.98-1.58c.86-1.21,1.29-2.75,1.29-4.61s-.43-3.52-1.29-4.72c-.76-1.06-1.77-1.6-3.03-1.6Z"/><path class="c" d="M262.99,171.38h3.31c.17,.89,.26,1.79,.26,2.71,0,.23-.01,.56-.03,.99,1.21-2.73,2.73-4.09,4.56-4.09,.47,0,1.03,.12,1.67,.36v3.64c-.9-.51-1.71-.77-2.45-.77-1.37,0-2.37,.79-3.01,2.37-.4,.98-.6,2.41-.6,4.27v7.97h-3.48v-11.78c-.01-2.76-.09-4.66-.22-5.67Z"/><path class="c" d="M288.75,164.26h3.53l8.04,24.58h-3.77l-1.74-5.75h-8.56l-1.77,5.75h-3.74l8.01-24.58Zm5.1,15.57l-3.32-11.02-3.32,11.02h6.65Z"/><path class="c" d="M301.96,171.38h3.46v10.29c0,1.54,.19,2.6,.59,3.16,.54,.8,1.4,1.2,2.57,1.2,1.39,0,2.41-.59,3.07-1.78,.4-.73,.6-1.83,.6-3.29v-9.59h3.46v12.1c0,1.41,0,2.35,.02,2.8,.03,.91,.17,1.76,.4,2.55h-3.32c-.2-.55-.31-1.27-.34-2.15-1.04,1.7-2.58,2.55-4.6,2.55-1.39,0-2.58-.35-3.57-1.06-1.14-.81-1.84-1.95-2.12-3.41-.14-.78-.21-1.77-.21-2.96v-10.41Z"/><path class="c" d="M324.26,171.38h3.69l-.05,2.85h-3.69l-.12,7.72c-.01,.48-.02,.96-.02,1.45,0,1.05,.11,1.73,.34,2.03,.31,.38,.78,.58,1.41,.58,.77,0,1.6-.19,2.5-.58l-.05,3.05c-1.16,.47-2.29,.7-3.39,.7-1.8,0-3.07-.62-3.79-1.87-.39-.66-.59-1.69-.59-3.09,0-.42,.02-1.18,.05-2.28l.21-7.72h-2.57l.05-2.85h2.62l.12-5.03h3.36l-.09,5.03Z"/><path class="c" d="M337.28,170.9c1.99,0,3.7,.72,5.13,2.15,.82,.8,1.44,1.78,1.86,2.94,.49,1.3,.74,2.68,.74,4.13,0,2.05-.44,3.85-1.33,5.4-.79,1.38-1.88,2.39-3.27,3.05-1.02,.49-2.1,.74-3.22,.74-2.04,0-3.78-.71-5.22-2.14-.82-.8-1.44-1.78-1.86-2.93-.49-1.3-.74-2.67-.74-4.11,0-2.06,.44-3.87,1.33-5.42,.79-1.39,1.88-2.42,3.27-3.09,1.02-.49,2.12-.74,3.31-.74Zm-.14,2.94c-1.21,0-2.18,.53-2.93,1.6-.86,1.21-1.29,2.77-1.29,4.69s.43,3.44,1.29,4.65c.75,1.05,1.74,1.58,2.98,1.58s2.24-.53,2.98-1.58c.86-1.21,1.29-2.75,1.29-4.61s-.43-3.52-1.29-4.72c-.76-1.06-1.77-1.6-3.03-1.6Z"/><path class="c" d="M347.55,171.38h3.38c.21,.62,.32,1.41,.33,2.35,1.16-1.83,2.82-2.75,4.98-2.75s3.8,.97,4.72,2.91c1.29-1.94,3.05-2.91,5.3-2.91s3.74,.81,4.53,2.42c.31,.66,.5,1.52,.57,2.58,.01,.24,.02,1.05,.02,2.42v10.41h-3.46v-10.36c0-1.53-.14-2.55-.43-3.07-.47-.81-1.31-1.22-2.53-1.22-2.37,0-3.55,1.53-3.55,4.58v10.07h-3.46v-9.98c0-1.71-.11-2.8-.34-3.27-.45-.93-1.3-1.4-2.57-1.4-.9,0-1.67,.26-2.31,.79-.85,.68-1.27,2-1.27,3.95v9.91h-3.46v-12.73c0-1.57-.03-2.64-.1-3.23-.06-.51-.17-1.01-.33-1.49Z"/><path class="c" d="M382.16,170.9c1.99,0,3.7,.72,5.13,2.15,.82,.8,1.44,1.78,1.86,2.94,.49,1.3,.74,2.68,.74,4.13,0,2.05-.44,3.85-1.33,5.4-.79,1.38-1.88,2.39-3.27,3.05-1.02,.49-2.1,.74-3.22,.74-2.04,0-3.78-.71-5.22-2.14-.82-.8-1.44-1.78-1.86-2.93-.49-1.3-.74-2.67-.74-4.11,0-2.06,.44-3.87,1.33-5.42,.79-1.39,1.88-2.42,3.27-3.09,1.02-.49,2.12-.74,3.31-.74Zm-.14,2.94c-1.21,0-2.18,.53-2.93,1.6-.86,1.21-1.29,2.77-1.29,4.69s.43,3.44,1.29,4.65c.75,1.05,1.74,1.58,2.98,1.58s2.24-.53,2.98-1.58c.86-1.21,1.29-2.75,1.29-4.61s-.43-3.52-1.29-4.72c-.76-1.06-1.77-1.6-3.03-1.6Z"/><path class="c" d="M396.81,171.38h3.69l-.05,2.85h-3.69l-.12,7.72c-.01,.48-.02,.96-.02,1.45,0,1.05,.11,1.73,.34,2.03,.31,.38,.78,.58,1.41,.58,.77,0,1.6-.19,2.5-.58l-.05,3.05c-1.16,.47-2.29,.7-3.39,.7-1.8,0-3.07-.62-3.79-1.87-.39-.66-.59-1.69-.59-3.09,0-.42,.02-1.18,.05-2.28l.21-7.72h-2.57l.05-2.85h2.62l.12-5.03h3.36l-.09,5.03Z"/><path class="c" d="M405.23,163.92c.59,0,1.07,.19,1.46,.56,.44,.42,.65,1,.65,1.74,0,.67-.2,1.21-.59,1.62-.41,.43-.95,.65-1.6,.65s-1.18-.21-1.58-.63c-.4-.41-.6-.94-.6-1.6,0-.74,.22-1.32,.67-1.74,.42-.39,.95-.59,1.58-.59Zm-1.84,7.47h3.53v17.45h-3.53v-17.45Z"/><path class="c" d="M408.89,171.38h3.65l4.24,13.5,4.25-13.5h3.62l-5.94,17.59h-3.88l-5.94-17.59Z"/><path class="c" d="M440.02,180.9h-11.44c.06,1.52,.37,2.73,.93,3.63,.77,1.22,1.93,1.83,3.5,1.83,1.64,0,2.82-.77,3.55-2.3l3.12,.23c-.36,1.25-.93,2.27-1.72,3.09-1.25,1.29-2.93,1.94-5.03,1.94-1.95,0-3.61-.57-4.96-1.72-1.92-1.64-2.88-4.06-2.88-7.25,0-2.21,.44-4.12,1.33-5.71,.77-1.39,1.83-2.4,3.17-3.03,.98-.47,2.04-.7,3.2-.7,2.37,0,4.21,.95,5.55,2.84,1.14,1.62,1.71,3.72,1.71,6.3,0,.19,0,.48-.02,.86Zm-3.53-2.69c-.33-2.94-1.59-4.42-3.77-4.42s-3.48,1.47-4.03,4.42h7.8Z"/><path class="c" d="M455.01,188.83h-3.67v-24.51h3.67v24.51Z"/><path class="c" d="M457.61,164.33h15.97v3.25h-6.18v21.26h-3.63v-21.26h-6.15v-3.25Z"/><path class="c" d="M487.75,188.83h-3.67v-24.51h3.67v24.51Z"/><path class="c" d="M491.81,171.38h3.34c.22,.61,.33,1.4,.34,2.37,1.19-1.84,2.88-2.76,5.05-2.76,1.31,0,2.43,.34,3.38,1.02,1.12,.84,1.78,2.05,1.96,3.64,.07,.59,.1,1.63,.1,3.12v10.05h-3.46v-9.44c0-1.8-.14-3-.41-3.63-.47-1.05-1.34-1.58-2.6-1.58-1.44,0-2.5,.63-3.19,1.9-.4,.73-.6,1.87-.6,3.43v9.32h-3.46v-11.35c0-2.2-.03-3.64-.1-4.33-.05-.43-.16-1.02-.34-1.78Z"/><path class="c" d="M509.53,171.38h3.34c.22,.61,.33,1.4,.34,2.37,1.19-1.84,2.88-2.76,5.05-2.76,1.31,0,2.43,.34,3.38,1.02,1.12,.84,1.78,2.05,1.96,3.64,.07,.59,.1,1.63,.1,3.12v10.05h-3.46v-9.44c0-1.8-.14-3-.41-3.63-.47-1.05-1.34-1.58-2.6-1.58-1.44,0-2.5,.63-3.19,1.9-.4,.73-.6,1.87-.6,3.43v9.32h-3.46v-11.35c0-2.2-.03-3.64-.1-4.33-.05-.43-.16-1.02-.34-1.78Z"/><path class="c" d="M534.48,170.9c1.99,0,3.7,.72,5.13,2.15,.82,.8,1.44,1.78,1.86,2.94,.49,1.3,.74,2.68,.74,4.13,0,2.05-.44,3.85-1.33,5.4-.79,1.38-1.88,2.39-3.27,3.05-1.02,.49-2.1,.74-3.22,.74-2.04,0-3.78-.71-5.22-2.14-.82-.8-1.44-1.78-1.86-2.93-.49-1.3-.74-2.67-.74-4.11,0-2.06,.44-3.87,1.33-5.42,.79-1.39,1.88-2.42,3.27-3.09,1.02-.49,2.12-.74,3.31-.74Zm-.14,2.94c-1.21,0-2.18,.53-2.93,1.6-.86,1.21-1.29,2.77-1.29,4.69s.43,3.44,1.29,4.65c.75,1.05,1.74,1.58,2.98,1.58s2.25-.53,2.98-1.58c.86-1.21,1.29-2.75,1.29-4.61s-.43-3.52-1.29-4.72c-.76-1.06-1.77-1.6-3.03-1.6Z"/><path class="c" d="M542.57,171.38h3.65l4.24,13.5,4.25-13.5h3.62l-5.94,17.59h-3.88l-5.94-17.59Z"/><path class="c" d="M562.81,176.3h-3.34c.18-1.63,.75-2.86,1.69-3.7,1.22-1.08,2.93-1.62,5.13-1.62,1.88,0,3.36,.42,4.44,1.26,.85,.66,1.36,1.71,1.53,3.14,.07,.57,.1,1.39,.1,2.44v6.8c-.01,1.99,.16,3.39,.52,4.2h-3.2c-.17-.67-.27-1.39-.29-2.15-.91,1.7-2.5,2.55-4.79,2.55-1.6,0-2.91-.38-3.93-1.13-1.19-.9-1.79-2.18-1.79-3.84,0-2.49,1.28-4.24,3.84-5.24,1.22-.48,3.31-.99,6.29-1.53v-.48c0-1.02-.16-1.74-.48-2.15-.48-.62-1.3-.93-2.45-.93-1.89,0-2.99,.8-3.27,2.39Zm6.2,3.68c-2.43,.38-4.08,.83-4.94,1.33-1.09,.63-1.64,1.48-1.64,2.53,0,.71,.25,1.3,.74,1.78,.53,.5,1.23,.75,2.12,.75,1.52,0,2.59-.61,3.22-1.83,.33-.63,.5-1.71,.5-3.21v-1.35Z"/><path class="c" d="M580.86,171.38h3.69l-.05,2.85h-3.69l-.12,7.72c-.01,.48-.02,.96-.02,1.45,0,1.05,.11,1.73,.34,2.03,.31,.38,.78,.58,1.41,.58,.77,0,1.6-.19,2.5-.58l-.05,3.05c-1.16,.47-2.29,.7-3.39,.7-1.8,0-3.07-.62-3.79-1.87-.39-.66-.59-1.69-.59-3.09,0-.42,.02-1.18,.05-2.28l.21-7.72h-2.57l.05-2.85h2.62l.12-5.03h3.36l-.09,5.03Z"/><path class="c" d="M589.28,163.92c.58,0,1.07,.19,1.46,.56,.44,.42,.65,1,.65,1.74,0,.67-.2,1.21-.59,1.62-.41,.43-.95,.65-1.6,.65s-1.18-.21-1.58-.63c-.4-.41-.6-.94-.6-1.6,0-.74,.22-1.32,.67-1.74,.42-.39,.95-.59,1.58-.59Zm-1.84,7.47h3.53v17.45h-3.53v-17.45Z"/><path class="c" d="M601.85,170.9c1.99,0,3.7,.72,5.13,2.15,.82,.8,1.44,1.78,1.86,2.94,.49,1.3,.74,2.68,.74,4.13,0,2.05-.44,3.85-1.33,5.4-.79,1.38-1.88,2.39-3.27,3.05-1.02,.49-2.1,.74-3.22,.74-2.04,0-3.78-.71-5.22-2.14-.82-.8-1.44-1.78-1.86-2.93-.49-1.3-.74-2.67-.74-4.11,0-2.06,.44-3.87,1.33-5.42,.79-1.39,1.88-2.42,3.27-3.09,1.02-.49,2.12-.74,3.31-.74Zm-.14,2.94c-1.21,0-2.18,.53-2.93,1.6-.86,1.21-1.29,2.77-1.29,4.69s.43,3.44,1.29,4.65c.75,1.05,1.74,1.58,2.98,1.58s2.25-.53,2.98-1.58c.86-1.21,1.29-2.75,1.29-4.61s-.43-3.52-1.29-4.72c-.76-1.06-1.77-1.6-3.03-1.6Z"/><path class="c" d="M612.09,171.38h3.34c.22,.61,.33,1.4,.34,2.37,1.19-1.84,2.88-2.76,5.05-2.76,1.31,0,2.43,.34,3.38,1.02,1.12,.84,1.78,2.05,1.96,3.64,.07,.59,.1,1.63,.1,3.12v10.05h-3.46v-9.44c0-1.8-.14-3-.41-3.63-.47-1.05-1.34-1.58-2.6-1.58-1.44,0-2.5,.63-3.19,1.9-.4,.73-.6,1.87-.6,3.43v9.32h-3.46v-11.35c0-2.2-.03-3.64-.1-4.33-.05-.43-.16-1.02-.34-1.78Z"/><path class="c" d="M642.41,176.46h-3.34c-.1-.84-.33-1.45-.67-1.85-.52-.61-1.3-.92-2.36-.92-.78,0-1.44,.2-1.98,.61-.52,.41-.78,.94-.78,1.6,0,.62,.24,1.1,.72,1.44,.44,.3,1.53,.72,3.27,1.26,1.57,.48,2.67,.9,3.29,1.27,1.37,.81,2.05,2.12,2.05,3.91,0,1.66-.54,2.99-1.62,3.97-1.14,1.04-2.76,1.56-4.86,1.56-3.23,0-5.34-1.07-6.34-3.21-.38-.79-.57-1.75-.57-2.89h3.29c.08,.99,.32,1.72,.71,2.19,.63,.73,1.57,1.09,2.82,1.09,.84,0,1.54-.19,2.1-.56,.64-.42,.96-1.05,.96-1.88,0-.72-.37-1.28-1.1-1.67-.41-.23-1.63-.66-3.65-1.29-1.68-.53-2.83-1.12-3.45-1.79-.74-.8-1.1-1.82-1.1-3.05,0-1.62,.59-2.92,1.77-3.91,1.15-.96,2.65-1.44,4.5-1.44,2.56,0,4.38,.85,5.46,2.55,.5,.79,.79,1.79,.86,3.02Z"/></g></g></svg>